<?xml version="1.0" encoding="UTF-8" standalone="no"?>
<!DOCTYPE svg PUBLIC "-//W3C//DTD SVG 1.1//EN" "http://www.w3.org/Graphics/SVG/1.1/DTD/svg11.dtd">
<svg width="100%" height="100%" viewBox="0 0 650 152" version="1.1" xmlns="http://www.w3.org/2000/svg" xmlns:xlink="http://www.w3.org/1999/xlink" xml:space="preserve" xmlns:serif="http://www.serif.com/" style="fill-rule:evenodd;clip-rule:evenodd;stroke-linejoin:round;stroke-miterlimit:2;">
    <g id="logo_x5F_dark">
        <g id="foundation_1_">
            <g id="_x3C_Group_x3E__2_">
                <path d="M175.54,120.101C175.54,120.101 175.54,127.516 175.54,127.516L192.564,127.516L192.564,131.885L175.54,131.885L175.54,144.75L170.721,144.75L170.721,115.732L200.032,115.732L200.032,120.101L175.54,120.101Z" style="fill:rgb(178,178,178);fill-rule:nonzero;"/>
                <path d="M253.553,130.201C253.553,134.957 251.599,138.805 247.691,141.744C246.085,142.946 244.191,143.889 242.01,144.569C239.828,145.251 237.465,145.592 234.923,145.592C232.38,145.592 230.004,145.244 227.796,144.55C225.588,143.855 223.681,142.906 222.074,141.704C218.166,138.765 216.212,134.931 216.212,130.201C216.212,125.552 218.193,121.73 222.155,118.738C223.787,117.51 225.694,116.548 227.876,115.853C230.058,115.158 232.407,114.811 234.923,114.811C237.412,114.811 239.754,115.158 241.95,115.853C244.144,116.548 246.045,117.51 247.651,118.738C251.586,121.73 253.553,125.552 253.553,130.201ZM248.534,130.201C248.534,126.822 247.088,124.06 244.198,121.914C243.02,121.057 241.642,120.386 240.063,119.903C238.482,119.421 236.77,119.179 234.923,119.179C232.889,119.179 231.035,119.454 229.362,120.004C227.689,120.554 226.25,121.318 225.045,122.297C223.841,123.276 222.904,124.442 222.235,125.797C221.565,127.15 221.231,128.619 221.231,130.201C221.231,131.837 221.552,133.332 222.195,134.687C222.837,136.041 223.754,137.2 224.945,138.166C226.136,139.132 227.575,139.883 229.261,140.419C230.948,140.955 232.835,141.223 234.923,141.223C237.011,141.223 238.891,140.955 240.564,140.419C242.237,139.883 243.662,139.132 244.84,138.166C246.018,137.2 246.928,136.041 247.57,134.687C248.213,133.332 248.534,131.837 248.534,130.201Z" style="fill:rgb(178,178,178);fill-rule:nonzero;"/>
                <path d="M305.369,139.479C304.606,140.722 303.515,141.804 302.096,142.726C300.677,143.647 298.958,144.363 296.937,144.87C294.916,145.378 292.634,145.632 290.091,145.632C287.548,145.632 285.253,145.371 283.205,144.851C281.158,144.329 279.424,143.614 278.005,142.706C276.586,141.798 275.496,140.716 274.733,139.459C273.971,138.204 273.589,136.841 273.589,135.371L273.589,115.732L278.407,115.732L278.407,134.237C278.407,136.513 279.391,138.253 281.358,139.457C283.326,140.661 286.236,141.263 290.091,141.263C293.918,141.263 296.81,140.661 298.764,139.457C300.717,138.253 301.695,136.513 301.695,134.237L301.695,115.732L306.513,115.732L306.513,135.371C306.513,136.868 306.132,138.237 305.369,139.479Z" style="fill:rgb(178,178,178);fill-rule:nonzero;"/>
                <path d="M355.134,144.75L332.892,120.942L332.892,144.75L328.073,144.75L328.073,115.732L334.056,115.732L356.259,139.54L356.259,115.732L361.078,115.732L361.078,144.75L355.134,144.75Z" style="fill:rgb(178,178,178);fill-rule:nonzero;"/>
                <path d="M408.094,116.794C410.128,117.503 411.854,118.498 413.274,119.78C414.693,121.063 415.783,122.619 416.546,124.449C417.31,126.28 417.69,128.317 417.69,130.562C417.69,132.619 417.296,134.517 416.507,136.253C415.717,137.99 414.544,139.54 412.993,140.902C411.574,142.158 409.94,143.113 408.094,143.768C406.248,144.423 404.267,144.75 402.151,144.75L382.84,144.75L382.84,115.732L401.228,115.732C403.771,115.732 406.061,116.087 408.094,116.794ZM406.548,139.64C407.767,139.146 408.81,138.457 409.681,137.575C410.549,136.694 411.231,135.646 411.729,134.43C412.224,133.214 412.471,131.885 412.471,130.441C412.471,128.893 412.21,127.482 411.688,126.213C411.165,124.944 410.43,123.855 409.479,122.946C408.53,122.038 407.391,121.337 406.066,120.842C404.742,120.349 403.263,120.101 401.631,120.101L387.657,120.101L387.657,140.381L402.555,140.381C403.998,140.381 405.331,140.135 406.548,139.64Z" style="fill:rgb(178,178,178);fill-rule:nonzero;"/>
                <path d="M464.948,144.75L461.575,138.257L442.023,138.257L438.649,144.75L433.391,144.75L448.768,115.732L454.831,115.732L470.208,144.75L464.948,144.75ZM451.819,119.86L444.391,133.889L459.208,133.889L451.819,119.86Z" style="fill:rgb(178,178,178);fill-rule:nonzero;"/>
                <path d="M502.369,120.101L502.369,144.75L497.552,144.75L497.552,120.101L483.659,120.101L483.659,115.732L516.263,115.732L516.263,120.101L502.369,120.101Z" style="fill:rgb(178,178,178);fill-rule:nonzero;"/>
                <rect x="533.968" y="115.732" width="4.819" height="29.018" style="fill:rgb(178,178,178);fill-rule:nonzero;"/>
                <path d="M596.364,130.201C596.364,134.957 594.409,138.805 590.502,141.744C588.896,142.946 587.002,143.889 584.82,144.569C582.639,145.251 580.277,145.592 577.733,145.592C575.189,145.592 572.814,145.244 570.607,144.55C568.398,143.855 566.491,142.906 564.887,141.704C560.977,138.765 559.022,134.931 559.022,130.201C559.022,125.552 561.005,121.73 564.967,118.738C566.599,117.51 568.506,116.548 570.687,115.853C572.869,115.158 575.217,114.811 577.733,114.811C580.225,114.811 582.566,115.158 584.76,115.853C586.955,116.548 588.856,117.51 590.461,118.738C594.396,121.73 596.364,125.552 596.364,130.201ZM591.346,130.201C591.346,126.822 589.899,124.06 587.01,121.914C585.83,121.057 584.452,120.386 582.873,119.903C581.294,119.421 579.58,119.179 577.733,119.179C575.698,119.179 573.846,119.454 572.173,120.004C570.5,120.554 569.062,121.318 567.856,122.297C566.651,123.276 565.714,124.442 565.047,125.797C564.378,127.15 564.043,128.619 564.043,130.201C564.043,131.837 564.364,133.332 565.006,134.687C565.647,136.041 566.565,137.2 567.757,138.166C568.946,139.132 570.387,139.883 572.073,140.419C573.76,140.955 575.646,141.223 577.733,141.223C579.821,141.223 581.701,140.955 583.374,140.419C585.047,139.883 586.474,139.132 587.651,138.166C588.829,137.2 589.739,136.041 590.381,134.687C591.024,133.332 591.346,131.837 591.346,130.201Z" style="fill:rgb(178,178,178);fill-rule:nonzero;"/>
                <path d="M643.661,144.75L621.419,120.942L621.419,144.75L616.6,144.75L616.6,115.732L622.583,115.732L644.786,139.54L644.786,115.732L649.605,115.732L649.605,144.75L643.661,144.75Z" style="fill:rgb(178,178,178);fill-rule:nonzero;"/>
            </g>
        </g>
        <g id="logo_horizontal_big">
            <path id="logo_orange_2_" d="M7.838,108.133L67.104,48.823L75.735,40.192L84.366,48.823L128.116,92.571L128.051,92.793L127.188,95.332L126.21,97.816L125.109,100.238L123.896,102.601L122.794,104.512L75.735,57.453C55.201,78.003 34.668,98.553 14.134,119.101C11.763,115.608 9.562,112.013 7.838,108.133Z" style="fill:rgb(230,74,25);"/>
            <path id="logo_grey_2_" d="M75.736,0C117.452,0 151.471,34.021 151.471,75.74C151.471,117.451 117.452,151.474 75.736,151.474C52.95,151.474 32.464,141.313 18.562,125.303L21.237,122.615L23.181,120.672L25.127,118.724L27.074,116.773L27.153,116.697C38.833,130.526 56.284,139.339 75.736,139.339C110.768,139.339 139.338,110.77 139.338,75.74C139.338,40.703 110.768,12.134 75.736,12.134C40.703,12.134 12.132,40.703 12.132,75.74C12.132,80.455 12.657,85.053 13.64,89.482L9.419,93.713L3.786,99.349C1.335,91.911 0,83.977 0,75.74C0,34.021 34.02,0 75.736,0Z" style="fill:rgb(178,178,178);"/>
        </g>
        <g id="lettering_1_">
            <path id="hab" d="M602.476,49.354L602.476,75.012L619.271,75.012L620.269,75.004L621.229,74.985L622.151,74.954L623.039,74.908L623.888,74.853L624.701,74.783L625.479,74.704L626.217,74.612L626.918,74.508L627.58,74.395L628.207,74.268L628.792,74.133L629.34,73.987L629.846,73.835L630.316,73.672L630.732,73.508L631.574,73.116L632.37,72.678L633.115,72.196L633.818,71.668L634.473,71.093L635.09,70.466L635.665,69.789L636.201,69.058L636.689,68.289L637.107,67.512L637.461,66.72L637.748,65.914L637.971,65.093L638.132,64.252L638.225,63.389L638.259,62.51L638.213,61.421L638.078,60.379L637.854,59.375L637.542,58.411L637.142,57.475L636.649,56.571L636.063,55.69L635.384,54.842L634.624,54.042L633.792,53.308L632.888,52.633L631.911,52.024L630.854,51.477L629.721,50.99L628.501,50.569L627.193,50.213L626.751,50.115L626.247,50.021L625.695,49.931L625.09,49.848L624.434,49.768L623.733,49.696L622.985,49.631L622.189,49.573L621.342,49.522L620.453,49.477L619.519,49.438L618.537,49.409L617.509,49.385L616.438,49.367L615.322,49.355L614.158,49.354L602.476,49.354ZM602.476,17.416L602.476,38.272L614.205,38.272L615.156,38.267L616.068,38.251L616.947,38.221L617.791,38.183L618.599,38.132L619.376,38.07L620.118,37.999L620.82,37.917L621.491,37.824L622.126,37.721L622.723,37.607L623.28,37.484L623.805,37.352L624.291,37.215L624.737,37.066L625.142,36.915L625.949,36.562L626.695,36.171L627.394,35.738L628.049,35.263L628.659,34.74L629.23,34.178L629.761,33.564L630.253,32.905L630.695,32.213L631.076,31.509L631.396,30.784L631.659,30.044L631.863,29.284L632.011,28.499L632.1,27.687L632.13,26.858L632.078,25.743L631.934,24.717L631.693,23.772L631.366,22.901L630.947,22.092L630.438,21.345L629.83,20.644L629.116,19.983L628.751,19.707L628.336,19.432L627.884,19.17L627.397,18.924L626.872,18.693L626.311,18.479L625.717,18.283L625.08,18.106L624.403,17.947L623.693,17.809L622.947,17.691L622.158,17.593L621.336,17.515L620.479,17.462L619.58,17.428L618.638,17.416L602.476,17.416ZM622.801,7.062L623.785,7.159L624.739,7.272L625.664,7.403L626.555,7.554L627.42,7.721L628.253,7.907L629.061,8.115L629.834,8.342L630.582,8.588L631.301,8.855L631.999,9.147L633.28,9.767L634.511,10.475L635.673,11.267L636.765,12.135L637.784,13.088L638.732,14.119L639.604,15.225L640.392,16.391L640.769,17.012L641.113,17.631L641.437,18.258L641.736,18.896L642.011,19.542L642.263,20.194L642.488,20.855L642.695,21.525L642.871,22.202L643.028,22.887L643.159,23.577L643.267,24.275L643.348,24.98L643.409,25.69L643.442,26.41L643.459,27.146L643.413,28.498L643.288,29.833L643.072,31.141L642.774,32.424L642.39,33.672L641.919,34.891L641.369,36.077L640.732,37.239L640.002,38.358L639.199,39.416L638.314,40.42L637.352,41.368L636.313,42.256L635.771,42.66L636.774,43.101L638.032,43.718L639.201,44.358L640.294,45.027L641.3,45.724L642.229,46.452L643.076,47.212L643.867,48.005L644.613,48.837L645.313,49.708L645.965,50.616L646.569,51.563L647.127,52.547L647.646,53.574L648.102,54.63L648.496,55.711L648.827,56.813L649.104,57.936L649.312,59.08L649.465,60.245L649.556,61.43L649.586,62.632L649.556,63.848L649.475,65.042L649.332,66.215L649.133,67.372L648.877,68.505L648.565,69.613L648.196,70.701L647.771,71.769L647.286,72.808L646.746,73.824L646.151,74.812L645.5,75.778L644.796,76.715L644.038,77.627L643.225,78.513L642.355,79.377L641.431,80.203L640.469,80.973L639.467,81.69L638.429,82.357L637.354,82.969L636.242,83.524L635.096,84.028L633.913,84.479L632.693,84.873L631.445,85.215L630.161,85.5L628.846,85.736L627.497,85.917L626.116,86.046L624.703,86.123L623.272,86.151L591.605,86.151L591.605,6.848L617.432,6.848L618.559,6.855L619.666,6.882L620.741,6.923L621.787,6.984L622.801,7.062ZM443.932,6.858L454.993,6.858L454.993,38.691L490.17,38.691L490.17,6.858L501.198,6.858L501.198,86.178L490.17,86.178L490.17,49.598L454.993,49.598L454.993,86.178L443.932,86.178L443.932,6.858ZM533.154,56.887L560.08,56.887L546.66,28.394L533.154,56.887ZM565.034,67.691L528.17,67.691L519.419,86.151L507.175,86.151L544.654,6.848L548.697,6.848L585.646,86.151L573.767,86.151L570.605,79.517L565.034,67.691Z" style="fill:rgb(178,178,178);"/>
            <g id="open">
                <path d="M201.287,24.825L202.94,24.864L204.562,24.977L206.153,25.167L207.713,25.434L209.238,25.776L210.734,26.198L212.194,26.696L213.62,27.272L215.008,27.923L216.361,28.651L217.677,29.455L218.955,30.335L220.194,31.288L221.396,32.316L222.559,33.417L223.687,34.596L224.661,35.726L225.568,36.877L226.415,38.057L227.2,39.266L227.923,40.499L228.584,41.761L229.182,43.048L229.717,44.362L230.188,45.7L230.597,47.062L230.942,48.448L231.226,49.859L231.444,51.292L231.601,52.749L231.693,54.226L231.726,55.729L231.691,57.231L231.592,58.718L231.426,60.18L231.193,61.624L230.893,63.043L230.526,64.441L230.093,65.815L229.593,67.167L229.024,68.493L228.392,69.794L227.693,71.067L226.929,72.317L226.098,73.54L225.204,74.737L224.246,75.905L223.222,77.052L222.138,78.155L221.012,79.192L219.846,80.159L218.641,81.06L217.395,81.886L216.111,82.642L214.79,83.325L213.431,83.94L212.032,84.478L210.6,84.946L209.133,85.341L207.632,85.665L206.094,85.913L204.525,86.091L202.922,86.2L201.287,86.235L199.641,86.2L198.029,86.093L196.454,85.913L194.912,85.665L193.403,85.341L191.932,84.946L190.498,84.478L189.101,83.94L187.738,83.325L186.415,82.642L185.132,81.886L183.889,81.058L182.684,80.159L181.52,79.192L180.396,78.153L179.316,77.052L178.293,75.905L177.334,74.737L176.439,73.54L175.611,72.317L174.847,71.067L174.149,69.792L173.518,68.489L172.953,67.165L172.454,65.814L172.022,64.439L171.657,63.041L171.358,61.621L171.127,60.178L170.962,58.716L170.863,57.231L170.832,55.729L170.861,54.233L170.955,52.762L171.111,51.31L171.331,49.882L171.612,48.476L171.957,47.092L172.367,45.731L172.839,44.399L173.372,43.089L173.972,41.805L174.632,40.544L175.356,39.313L176.141,38.107L176.987,36.929L177.896,35.776L178.868,34.649L179.992,33.467L181.155,32.358L182.355,31.325L183.597,30.367L184.874,29.481L186.191,28.673L187.546,27.94L188.936,27.286L190.359,26.707L191.822,26.206L193.317,25.782L194.848,25.438L196.408,25.168L198.003,24.977L199.629,24.864L201.287,24.825ZM201.287,35.168L200.272,35.19L199.282,35.261L198.313,35.378L197.363,35.543L196.434,35.753L195.525,36.011L194.633,36.313L193.761,36.665L192.902,37.062L192.063,37.505L191.239,37.998L190.431,38.54L189.637,39.129L188.858,39.77L188.095,40.458L187.348,41.199L186.629,41.973L185.962,42.763L185.342,43.569L184.771,44.396L184.244,45.239L183.766,46.101L183.332,46.979L182.945,47.881L182.603,48.8L182.306,49.736L182.056,50.696L181.85,51.68L181.688,52.683L181.574,53.708L181.505,54.758L181.482,55.838L181.491,56.524L181.523,57.213L181.574,57.892L181.648,58.565L181.742,59.234L181.856,59.896L181.992,60.551L182.15,61.204L182.326,61.849L182.524,62.489L182.743,63.122L182.983,63.75L183.245,64.374L183.527,64.992L183.831,65.605L184.15,66.204L184.854,67.384L185.609,68.479L186.42,69.503L187.288,70.454L188.213,71.333L189.197,72.146L190.241,72.892L191.36,73.577L191.916,73.88L192.492,74.171L193.076,74.44L193.667,74.69L194.262,74.921L194.863,75.13L195.474,75.321L196.09,75.491L196.711,75.64L197.344,75.771L197.981,75.882L198.626,75.972L199.277,76.042L199.941,76.093L200.61,76.124L201.287,76.134L201.971,76.124L202.648,76.093L203.319,76.042L203.979,75.972L204.629,75.882L205.273,75.769L205.911,75.64L206.539,75.491L207.155,75.321L207.769,75.13L208.374,74.919L208.973,74.69L209.563,74.44L210.148,74.171L210.728,73.88L211.28,73.579L212.381,72.896L213.415,72.151L214.392,71.339L215.31,70.458L216.173,69.505L216.981,68.483L217.734,67.384L218.438,66.206L218.751,65.612L219.054,64.997L219.334,64.379L219.594,63.755L219.831,63.126L220.05,62.491L220.248,61.849L220.424,61.206L220.579,60.554L220.716,59.897L220.829,59.233L220.925,58.565L220.997,57.892L221.05,57.211L221.082,56.522L221.093,55.837L221.068,54.761L220.998,53.711L220.882,52.684L220.721,51.682L220.513,50.7L220.261,49.739L219.963,48.8L219.62,47.882L219.23,46.982L218.797,46.102L218.315,45.24L217.789,44.396L217.216,43.569L216.595,42.763L215.927,41.972L215.211,41.199L214.461,40.458L213.697,39.77L212.918,39.129L212.125,38.54L211.315,37.999L210.491,37.505L209.652,37.061L208.797,36.665L207.923,36.313L207.032,36.011L206.123,35.753L205.197,35.543L204.25,35.378L203.283,35.261L202.295,35.19L201.287,35.168ZM367.056,70.245L366.255,71.646L365.42,72.978L364.55,74.239L363.641,75.433L362.695,76.556L361.711,77.608L360.692,78.587L359.649,79.497L358.574,80.351L357.465,81.146L356.323,81.888L355.147,82.571L353.941,83.2L352.701,83.771L351.441,84.282L350.782,84.522L350.125,84.743L349.456,84.948L348.778,85.138L348.092,85.313L347.396,85.474L346.689,85.618L345.973,85.749L345.246,85.862L344.512,85.96L343.769,86.044L343.018,86.114L342.254,86.167L341.484,86.204L340.705,86.228L339.908,86.235L338.179,86.198L336.484,86.089L334.832,85.909L333.224,85.655L331.658,85.327L330.137,84.925L328.661,84.446L327.229,83.896L325.844,83.269L324.508,82.567L323.217,81.79L321.978,80.94L320.786,80.015L319.646,79.019L318.558,77.948L317.526,76.815L316.557,75.642L315.652,74.456L314.81,73.247L314.029,72.017L313.308,70.767L312.649,69.493L312.053,68.202L311.521,66.892L311.048,65.561L310.64,64.208L310.294,62.839L310.013,61.452L309.793,60.046L309.637,58.623L309.543,57.184L309.513,55.731L309.538,54.356L309.618,53.001L309.75,51.662L309.937,50.341L310.174,49.036L310.468,47.75L310.813,46.481L311.216,45.232L311.668,44.002L312.175,42.792L312.734,41.599L313.349,40.429L314.012,39.276L314.729,38.146L315.498,37.034L316.322,35.942L317.411,34.611L318.559,33.358L319.755,32.186L321.002,31.099L322.297,30.096L323.643,29.18L325.034,28.35L326.474,27.608L327.958,26.952L329.488,26.386L331.062,25.905L332.681,25.517L334.337,25.213L336.036,24.997L337.775,24.869L339.555,24.825L341.373,24.869L343.15,25.001L344.888,25.222L346.584,25.533L348.238,25.931L349.851,26.421L351.42,27L352.943,27.672L354.419,28.431L355.85,29.279L357.231,30.216L358.566,31.241L359.851,32.351L361.087,33.549L362.271,34.831L363.404,36.196L364.175,37.216L364.896,38.267L365.57,39.349L366.194,40.464L366.766,41.604L367.29,42.779L367.764,43.983L368.189,45.218L368.563,46.477L368.888,47.767L369.163,49.081L369.39,50.428L369.565,51.799L369.694,53.199L369.773,54.624L369.843,57.788L320.303,57.788L320.342,58.286L320.468,59.354L320.637,60.396L320.846,61.405L321.098,62.386L321.39,63.34L321.724,64.267L322.096,65.165L322.511,66.036L322.966,66.88L323.465,67.702L324.003,68.497L324.584,69.269L325.207,70.015L325.877,70.741L326.571,71.431L327.285,72.075L328.016,72.671L328.765,73.224L329.532,73.728L330.317,74.19L331.12,74.606L331.944,74.979L332.787,75.31L333.65,75.595L334.536,75.835L335.444,76.036L336.372,76.19L337.324,76.302L338.299,76.37L339.298,76.392L340.28,76.37L341.255,76.304L342.219,76.196L343.176,76.048L344.122,75.854L345.063,75.618L345.997,75.339L346.922,75.021L347.827,74.657L348.706,74.269L349.544,73.853L350.346,73.413L351.108,72.948L351.835,72.46L352.521,71.946L353.17,71.413L353.803,70.829L354.461,70.149L355.146,69.368L355.854,68.487L356.585,67.505L357.337,66.421L358.108,65.24L359.75,62.589L368.585,67.313L367.056,70.245ZM356.045,43.611L355.487,42.745L354.901,41.955L354.265,41.214L353.572,40.502L352.83,39.823L352.035,39.18L351.187,38.569L350.285,37.995L349.326,37.455L348.302,36.946L347.787,36.716L347.263,36.495L346.733,36.291L346.206,36.103L345.672,35.929L345.137,35.769L344.599,35.626L344.056,35.497L343.51,35.383L342.964,35.284L342.413,35.202L341.856,35.134L341.3,35.079L340.741,35.041L340.177,35.021L339.614,35.013L338.673,35.032L337.759,35.089L336.864,35.183L335.989,35.315L335.132,35.483L334.293,35.692L333.472,35.935L332.667,36.217L331.877,36.532L331.108,36.888L330.353,37.28L329.613,37.712L328.887,38.181L328.179,38.688L327.482,39.234L326.804,39.819L326.335,40.26L325.881,40.729L325.438,41.228L325.01,41.756L324.592,42.311L324.189,42.896L323.798,43.513L323.42,44.161L323.054,44.839L322.703,45.547L322.365,46.285L322.042,47.056L321.731,47.856L321.578,48.289L358.101,48.289L357.956,47.83L357.528,46.661L357.067,45.569L356.571,44.554L356.045,43.611ZM270.797,24.825L272.45,24.864L274.072,24.977L275.663,25.167L277.223,25.434L278.749,25.776L280.244,26.198L281.704,26.696L283.13,27.272L284.518,27.923L285.871,28.651L287.187,29.455L288.465,30.335L289.704,31.288L290.905,32.316L292.068,33.417L293.197,34.596L294.171,35.726L295.078,36.877L295.925,38.057L296.71,39.266L297.433,40.499L298.094,41.761L298.691,43.048L299.227,44.362L299.698,45.7L300.106,47.062L300.452,48.448L300.735,49.859L300.954,51.292L301.11,52.749L301.203,54.226L301.235,55.729L301.201,57.231L301.102,58.718L300.936,60.18L300.703,61.624L300.402,63.043L300.036,64.441L299.603,65.815L299.103,67.167L298.534,68.493L297.901,69.794L297.203,71.067L296.438,72.317L295.607,73.54L294.714,74.737L293.756,75.905L292.731,77.052L291.647,78.155L290.521,79.192L289.355,80.159L288.15,81.06L286.904,81.886L285.621,82.642L284.3,83.325L282.94,83.94L281.542,84.478L280.109,84.946L278.643,85.341L277.142,85.665L275.604,85.913L274.035,86.091L272.432,86.2L270.797,86.235L269.15,86.2L267.539,86.093L265.964,85.913L264.422,85.665L262.913,85.341L261.441,84.946L260.008,84.478L258.61,83.94L257.248,83.325L255.925,82.642L254.642,81.886L253.398,81.058L252.193,80.159L251.029,79.192L251.002,79.167L251.002,107.336L240.348,107.336L240.348,56.026L240.342,55.729L240.348,55.416L240.348,55.257L240.351,55.257L240.371,54.233L240.465,52.762L240.621,51.31L240.841,49.882L241.122,48.476L241.467,47.092L241.877,45.731L242.349,44.399L242.882,43.089L243.481,41.805L244.142,40.544L244.866,39.313L245.65,38.107L246.497,36.929L247.405,35.776L248.378,34.649L249.502,33.467L250.665,32.358L251.865,31.325L253.106,30.367L254.384,29.481L255.701,28.673L257.056,27.94L258.445,27.286L259.869,26.707L261.332,26.206L262.827,25.782L264.357,25.438L265.918,25.168L267.513,24.977L269.139,24.864L270.797,24.825ZM251.002,56.53L251.002,55.379L251.015,54.758L251.084,53.708L251.197,52.683L251.359,51.68L251.565,50.696L251.815,49.736L252.112,48.8L252.455,47.881L252.842,46.979L253.275,46.101L253.754,45.239L254.28,44.396L254.852,43.569L255.472,42.763L256.139,41.973L256.857,41.199L257.604,40.458L258.368,39.77L259.146,39.129L259.94,38.54L260.749,37.998L261.573,37.505L262.411,37.062L263.271,36.665L264.143,36.313L265.035,36.011L265.943,35.753L266.873,35.543L267.822,35.378L268.792,35.261L269.782,35.19L270.797,35.168L271.805,35.19L272.793,35.261L273.76,35.378L274.707,35.543L275.633,35.753L276.542,36.011L277.433,36.313L278.307,36.665L279.162,37.061L280.001,37.505L280.825,37.999L281.635,38.54L282.428,39.129L283.207,39.77L283.971,40.458L284.721,41.199L285.437,41.972L286.104,42.763L286.726,43.569L287.299,44.396L287.825,45.24L288.307,46.102L288.74,46.982L289.13,47.882L289.473,48.8L289.771,49.739L290.022,50.7L290.23,51.682L290.392,52.684L290.508,53.711L290.578,54.761L290.603,55.837L290.592,56.522L290.56,57.211L290.507,57.892L290.434,58.565L290.339,59.233L290.226,59.897L290.089,60.554L289.934,61.206L289.758,61.849L289.56,62.491L289.341,63.126L289.104,63.755L288.844,64.379L288.563,64.997L288.261,65.612L287.948,66.206L287.244,67.384L286.491,68.483L285.683,69.505L284.819,70.458L283.901,71.339L282.925,72.151L281.891,72.896L280.79,73.579L280.237,73.88L279.658,74.171L279.072,74.44L278.482,74.69L277.884,74.919L277.278,75.13L276.665,75.321L276.049,75.491L275.421,75.64L274.783,75.769L274.139,75.882L273.489,75.972L272.829,76.042L272.158,76.093L271.48,76.124L270.797,76.134L270.12,76.124L269.451,76.093L268.787,76.042L268.136,75.972L267.491,75.882L266.854,75.771L266.221,75.64L265.6,75.491L264.983,75.321L264.373,75.13L263.771,74.921L263.177,74.69L262.586,74.44L262.002,74.171L261.426,73.88L260.87,73.577L259.751,72.892L258.707,72.146L257.723,71.333L256.798,70.454L255.93,69.503L255.119,68.479L254.364,67.384L253.66,66.204L253.341,65.605L253.037,64.992L252.755,64.374L252.493,63.75L252.253,63.122L252.034,62.489L251.836,61.849L251.66,61.204L251.502,60.551L251.366,59.896L251.252,59.234L251.158,58.565L251.084,57.892L251.033,57.213L251.002,56.53ZM405.283,24.912C400.662,24.912 394.503,26.025 390.542,28.312C386.536,30.626 383.635,33.789 381.916,37.713C380.224,41.584 379.401,47.381 379.401,55.437L379.401,86.162L389.853,86.162L389.853,57.563C389.853,51.143 390.124,46.828 390.659,44.738C391.468,41.307 392.97,38.986 395.259,37.614C397.634,36.19 400.442,35.013 405.28,35.013C410.117,35.013 412.871,36.199 415.246,37.623C417.535,38.994 419.037,41.315 419.846,44.747C420.381,46.837 420.652,51.151 420.652,57.571L420.652,86.171L431.104,86.171L431.104,55.445C431.104,47.39 430.281,41.593 428.589,37.722C426.87,33.798 423.969,30.635 419.963,28.32C416.002,26.033 409.904,24.912 405.283,24.912Z" style="fill:rgb(230,74,25);"/>
            </g>
        </g>
    </g>
</svg>
