<svg xmlns="http://www.w3.org/2000/svg" xml:space="preserve" version="1.0" viewBox="0 0 734.875 209.875">
  <path fill="#989898" fill-rule="evenodd" d="M325.1796875 165.9150391H314.387207c.0424805 1.6103516.5385742 2.8398438 1.4921875 3.6953125s2.1865234 1.2871094 3.7041016 1.2871094c1.6489258 0 3.0957031-.2568359 4.3354492-.7695313l.4916992 2c-1.4663086.6542969-3.1982422.984375-5.1953125.984375-2.3173828 0-4.1601563-.6865234-5.5361328-2.0615234-1.3720703-1.3720703-2.0571289-3.1982422-2.0571289-5.4726563 0-2.2763672.659668-4.1816406 1.9770508-5.71875 1.3178711-1.5371094 3.0844727-2.3046875 5.3081055-2.3046875 2.050293 0 3.6225586.6816406 4.7182617 2.0478516 1.0976563 1.3691406 1.6445313 3.0458984 1.6445313 5.0234375-1e-7 .5634765-.0283204.993164-.0903321 1.2890625zm-10.7607422-2.0585938h8.0859375c0-1.28125-.328125-2.3144531-.9897461-3.0976563-.6601563-.7851563-1.6035156-1.1757813-2.8227539-1.1757813-1.1582031 0-2.1166992.390625-2.875 1.1757813-.7592773.7832032-1.2236328 1.8164063-1.3984375 3.0976563zm14.2949219 8.9160156v-10.7910156c0-1.6494141-.0400391-3.0126953-.1220703-4.0878906h2.4892578l.2158203 2.4267578c1.1054688-1.8427734 2.7236328-2.765625 4.8574219-2.765625.984375 0 1.8603516.2666016 2.6230469.7998047.7646484.5322266 1.3427734 1.2695313 1.7421875 2.2128906 1.21875-2.0068359 2.9199219-3.0126953 5.1044922-3.0126953 1.4746094 0 2.6894531.5585938 3.6416016 1.6738281.9541016 1.1191406 1.4306641 2.7529297 1.4306641 4.90625v8.6376953h-2.7978516v-8.2978516c0-1.4794922-.2822266-2.6113281-.8496094-3.3994141-.5693359-.7900391-1.3847656-1.1845703-2.4404297-1.1845703-.9121094 0-1.7216797.3486328-2.4326172 1.0527344-.7138672.6982422-1.0722656 1.6025391-1.0722656 2.6972656v9.1318359h-2.7978516v-8.7929688c0-1.2617188-.2822266-2.2597656-.8447266-2.9921875-.5634766-.734375-1.3369141-1.0966797-2.3212891-1.0966797-.9541016 0-1.7939453.4003906-2.5263672 1.2001953-.7324219.7978516-1.1015625 1.7314453-1.1015625 2.7949219v8.8867188h-2.7978515v1e-7zm26.4697266 6.0859375V162.78125c0-1.9970703-.0390625-3.6279297-.1220703-4.8876953h2.5527344l.1533203 2.5820313h.0605469c1.2392578-1.9472656 3.0849609-2.9208984 5.5332031-2.9208984 1.8652344 0 3.4179688.7011719 4.6572266 2.1103516 1.2412109 1.4101563 1.8613281 3.21875 1.8613281 5.421875 0 2.4492188-.6650391 4.3964844-2.0029297 5.8457031-1.3369141 1.4492188-3.0087891 2.1796875-5.0078125 2.1796875-1.0136719 0-1.9414063-.2060547-2.7861328-.6171875-.8466797-.4082031-1.5068359-.9941406-1.9775391-1.7519531h-.0625v8.1152344h-2.859375v-2e-7zm2.859375-14.6318359v2.3974609c0 1.1992188.421875 2.2041016 1.2558594 3.0175781.8359375.8144531 1.8398438 1.2246094 3.0195313 1.2246094 1.4345703 0 2.5712891-.5126953 3.4111328-1.5332031.8398438-1.0175781 1.2607422-2.3925781 1.2607422-4.1220703 0-1.5605469-.4150391-2.8457031-1.2460938-3.8603516-.8300781-1.0126953-1.9306641-1.5205078-3.3037109-1.5205078-.8818359 0-1.6923828.2509766-2.4277344.7587891-.7392578.5058594-1.2519531 1.1269531-1.5390625 1.8583984-.2861329.7324219-.4306641 1.3261719-.4306641 1.7792969zm29.3613281.953125c0 1.5986328-.3339844 2.9970703-1 4.1953125-.6650391 1.1992188-1.5986328 2.1201172-2.796875 2.7666016-1.1992188.6464844-2.4951172.9707031-3.8886719.9707031-2.1728516 0-3.9648438-.7148438-5.3818359-2.1337891-1.4140625-1.4199219-2.1191406-3.2587891-2.1191406-5.5234375 0-2.4072266.7324219-4.3291016 2.1923828-5.7578125 1.4609375-1.4316406 3.2998047-2.1425781 5.5234375-2.1425781 2.2138672 0 4.0136719.7070313 5.3955078 2.1259766 1.383789 1.4199218 2.0751953 3.2529297 2.0751953 5.4990234zm-12.2666016.1835938c0 1.6289063.4355469 2.9726563 1.3066406 4.0332031.8710938 1.0595703 1.9628906 1.5917969 3.2744141 1.5917969 1.3417969 0 2.4638672-.5322266 3.3613281-1.5976563.8964844-1.0644531 1.3427734-2.4404297 1.3427734-4.1181641 0-1.5498047-.4101563-2.8710938-1.2353516-3.9619141-.8242188-1.0927734-1.9511719-1.6357422-3.3769531-1.6357422-1.4443359 0-2.5820313.5371094-3.4169922 1.6201172-.8359374 1.0800782-1.2558593 2.4375001-1.2558593 4.0683595zm13.7734375-7.4697266h2.9189453c1.9482422 7.2148438 2.9931641 11.2929688 3.1367188 12.234375h.0615234c.1123047-.7988281 1.3837891-4.8779297 3.8115234-12.234375h2.4296875c2.203125 6.8945313 3.4335938 10.9746094 3.6884766 12.234375h.0625c.2861328-1.5351563.6455078-3.0429688 1.0751953-4.5175781l2.2451172-7.7167969h2.828125L406.25 172.7724609h-2.6435547c-1.6904297-5.2050781-2.6435547-8.1679688-2.859375-8.8798828-.2158203-.7128906-.4619141-1.7158203-.7373047-3.0166016h-.0625c-.3378906 1.5458984-.7841797 3.1230469-1.3369141 4.734375l-2.4765625 7.1621094h-2.6425781l-4.5800781-14.8789062zm37.2001953 8.0214844h-10.7919922c.0400391 1.6103516.5380859 2.8398438 1.4921875 3.6953125.953125.8554688 2.1865234 1.2871094 3.703125 1.2871094 1.6503906 0 3.0966797-.2568359 4.3349609-.7695313l.4921875 2c-1.4658203.6542969-3.1972656.984375-5.1953125.984375-2.3164063 0-4.1601563-.6865234-5.5341797-2.0615234-1.3740234-1.3720703-2.0585938-3.1982422-2.0585938-5.4726563 0-2.2763672.6601563-4.1816406 1.9775391-5.71875 1.3164063-1.5371094 3.0839844-2.3046875 5.3066406-2.3046875 2.0517578 0 3.6240234.6816406 4.71875 2.0478516 1.0986328 1.3691406 1.6455078 3.0458984 1.6455078 5.0234375 1e-7 .5634765-.0292967.993164-.0908202 1.2890625zm-10.7607422-2.0585938h8.0859375c0-1.28125-.3291016-2.3144531-.9902344-3.0976563-.6601563-.7851563-1.6035156-1.1757813-2.8232422-1.1757813-1.1572266 0-2.1152344.390625-2.8730469 1.1757813-.7597655.7832032-1.2255858 1.8164063-1.399414 3.0976563zm14.2949219 8.9160156v-10.1445313c0-1.9267578-.0419922-3.5058594-.1220703-4.734375h2.5205078l.1835938 2.9824219c.3808594-1.0458984.9589844-1.8623047 1.7373047-2.4462891.7783203-.5830078 1.625-.875 2.5371094-.875.1943359 0 .4511719.0214844.7666016.0625v2.703125c-.2753906-.0595703-.6015625-.0927734-.9824219-.0927734-1.0341797 0-1.9208984.4072266-2.6630859 1.2158203-.7441406.8105469-1.1171875 1.9619141-1.1171875 3.4589844v7.8701172h-2.8603517zm13.3125 0h-2.8583984v-14.8789063h2.8583984v14.8789063zm.3994141-19.399414c0 .5126953-.1689453.9414063-.5078125 1.2910156-.3369141.3476563-.7822266.5234375-1.3359375.5234375-.5332031 0-.9697266-.1757813-1.3066406-.5234375-.3378906-.3496094-.5078125-.7783203-.5078125-1.2910156 0-.5009766.1738281-.9267578.5185547-1.2705078.3417969-.34375.7841797-.5136719 1.3261719-.5136719.5234375 0 .9589844.1699219 1.3007813.5136719.3437499.34375.5126952.7695312.5126952 1.2705078zm4.1826172 19.399414v-10.7910156c0-1.6494141-.0429688-3.0126953-.1230469-4.0878906H449.9375l.2460938 2.5214844c.4697266-.8642578 1.1630859-1.5556641 2.0742188-2.0761719.9121094-.5214844 1.9121094-.7841797 2.9990234-.7841797 1.5566406 0 2.8515625.5488281 3.8886719 1.6494141 1.0341797 1.1025391 1.5517578 2.7158203 1.5517578 4.8378906v8.7304688h-2.8603516v-8.4238281c0-1.4052734-.3007813-2.4951172-.90625-3.2695313-.6025391-.7724609-1.4804688-1.15625-2.6289063-1.15625-1.0234375 0-1.9306641.3837891-2.7197266 1.1523438-.7900391.7666016-1.1845703 1.7060547-1.1845703 2.8105469v8.8867188h-2.8574218v-2e-7zm30.868164-10.852539v8.6386719c0 3.2392578-.7041016 5.4951172-2.1074219 6.7646484-1.4042969 1.2705078-3.3154297 1.9052734-5.7353516 1.9052734-2.1523438 0-3.8828125-.4306641-5.1943359-1.2900391l.7089844-2.1835938c1.3212891.8203125 2.8359375 1.2285156 4.5478516 1.2285156 1.5878906 0 2.8125-.4384766 3.6679688-1.3212891.8554688-.8808594 1.2802734-2.1728516 1.2802734-3.8710938l-.0595703-1.6328125c-1.078125 1.7041016-2.7158203 2.5527344-4.9199219 2.5527344-1.8740234 0-3.4326172-.6943359-4.6787109-2.0859375-1.2451172-1.3867188-1.8671875-3.109375-1.8671875-5.1699219 0-2.3857422.6855469-4.3037109 2.0546875-5.7421875 1.3662109-1.4414063 2.9941406-2.1582031 4.8916016-2.1582031 2.2548828 0 3.8837891.8603516 4.8896484 2.5830078l.1210938-2.2441406h2.5224609c-.0830079.8916018-.1220704 2.2324221-.1220704 4.0263674zm-2.8603515 4.3671875v-2.4306641c0-1.1074219-.3740234-2.0654297-1.1230469-2.875-.7490234-.8085938-1.7275391-1.2148438-2.9365234-1.2148438-1.3320313 0-2.4238281.5087891-3.2734375 1.5244141-.8505859 1.0146484-1.2783203 2.3496094-1.2783203 4.0097656 0 1.5263672.4121094 2.7773438 1.2275391 3.7578125.8125.9765625 1.9111328 1.46875 3.2929688 1.46875 1.0966797 0 2.0546875-.3955078 2.8691406-1.1816406.8154296-.7880859 1.2216796-1.8095703 1.2216796-3.0585937zm14.7558593-11.1611328 2.7978516-.8310547v3.5986328h3.9648438v2.1816406h-3.9648438v7.7480469c0 1.0341797.1699219 1.7773438.5039063 2.2324219.3320313.4560547.8574219.6875 1.5878906.6875.6640625 0 1.2089844-.0615234 1.6279297-.1845703l.1240234 2.1523438c-.7080078.2666016-1.5576172.4013672-2.5517578.4013672-2.7255859 0-4.0898438-1.703125-4.0898438-5.1064453v-7.9306641h-2.3359375v-2.1816406h2.3359375v-2.7675782zm9.9306641 17.6464843V150.883789h2.859375v9.3769531h.0625c.5-.8408203 1.2050781-1.5019531 2.0996094-1.9833984.8964844-.4814453 1.8115234-.7226563 2.7578125-.7226563 1.5361328 0 2.8164063.5488281 3.8408203 1.6494141 1.0283203 1.1025391 1.5400391 2.7158203 1.5400391 4.8378906v8.7304688h-2.8603516v-8.4238281c0-1.4052734-.3027344-2.4951172-.9072266-3.2695313-.6025391-.7724609-1.4804688-1.15625-2.6289063-1.15625-.9726563 0-1.8652344.3623047-2.6787109 1.0957031-.8154297.7333984-1.2255859 1.6796875-1.2255859 2.8378906v8.9160156h-2.859375v1e-7zm30.0673828-6.8574218h-10.7910156c.0400391 1.6103516.5400391 2.8398438 1.4921875 3.6953125s2.1855469 1.2871094 3.703125 1.2871094c1.6513672 0 3.0966797-.2568359 4.3349609-.7695313l.4921875 2c-1.4648438.6542969-3.1972656.984375-5.1953125.984375-2.3173828 0-4.1601563-.6865234-5.5332031-2.0615234-1.3740234-1.3720703-2.0595703-3.1982422-2.0595703-5.4726563 0-2.2763672.6591797-4.1816406 1.9775391-5.71875 1.3173828-1.5371094 3.0839844-2.3046875 5.3076172-2.3046875 2.0488281 0 3.6240234.6816406 4.7197266 2.0478516 1.0947266 1.3691406 1.6435547 3.0458984 1.6435547 5.0234375-1e-7 .5634765-.0302735.993164-.091797 1.2890625zm-10.7607422-2.0585938h8.0869141c0-1.28125-.328125-2.3144531-.9873047-3.0976563-.6621094-.7851563-1.6044922-1.1757813-2.8242188-1.1757813-1.1591797 0-2.1181641.390625-2.875 1.1757813-.7597656.7832032-1.2236328 1.8164063-1.4003906 3.0976563zm19.953125 8.2089844.6757813-2.1835938c1.2089844.7392578 2.4599609 1.1064453 3.7509766 1.1064453.9208984 0 1.6337891-.1943359 2.1376953-.5830078.5009766-.390625.7519531-.9101563.7519531-1.5673828 0-.6259766-.2041016-1.1386719-.6181641-1.5332031-.4169922-.3955078-1.1445313-.7626953-2.1787109-1.1123047-2.7265625-.9296875-4.0888672-2.3359375-4.0888672-4.2109375 0-1.25.4853516-2.3007813 1.4541016-3.1513672.9697266-.8515625 2.2548828-1.2753906 3.8623047-1.2753906 1.5 0 2.7695313.3076172 3.8144531.9228516l-.7080078 2.0585938c-1.0351563-.59375-2.1015625-.890625-3.1953125-.890625-.7617188 0-1.3583984.1845703-1.8007813.5566406-.4384766.375-.6601563.8583984-.6601563 1.4394531 0 .5253906.1904297.9648438.5625 1.3232422.3740234.359375 1.1484375.7460938 2.3261719 1.1699219 1.4365234.5107422 2.4658203 1.1152344 3.0908203 1.8164063.625.7021484.9384766 1.5849609.9384766 2.6416016 0 1.3525391-.5126953 2.4423828-1.5449219 3.2734375-1.0283203.8291016-2.4326172 1.2460938-4.2050781 1.2460938-1.6279297-2e-7-3.0839844-.3496096-4.3652344-1.0468752zm13.6796875.7070312v-10.7910156c0-1.6494141-.0410156-3.0126953-.1230469-4.0878906h2.4902344l.2158203 2.4267578c1.1054688-1.8427734 2.7255859-2.765625 4.8583984-2.765625.984375 0 1.8613281.2666016 2.6230469.7998047.7617188.5322266 1.34375 1.2695313 1.7412109 2.2128906 1.2197266-2.0068359 2.9189453-3.0126953 5.1035156-3.0126953 1.4746094 0 2.6923828.5585938 3.6435547 1.6738281.953125 1.1191406 1.4287109 2.7529297 1.4287109 4.90625v8.6376953h-2.7949219v-8.2978516c0-1.4794922-.2841797-2.6113281-.8515625-3.3994141-.5683594-.7900391-1.3847656-1.1845703-2.4384766-1.1845703-.9150391 0-1.7246094.3486328-2.4335938 1.0527344-.7138672.6982422-1.0732422 1.6025391-1.0732422 2.6972656v9.1318359h-2.796875v-8.7929688c0-1.2617188-.2802734-2.2597656-.8457031-2.9921875-.5625-.734375-1.3378906-1.0966797-2.3212891-1.0966797-.9541016 0-1.7929688.4003906-2.5253906 1.2001953-.734375.7978516-1.1015625 1.7314453-1.1015625 2.7949219v8.8867188h-2.7988279v1e-7zm37.3525391-9.008789v5.4423828c0 1.4755859.0849609 2.6660156.2490234 3.5664063h-2.6152344l-.3369141-1.90625c-1.1181641 1.4960938-2.6865234 2.2460938-4.7041016 2.2460938-1.4140625 0-2.546875-.4199219-3.3964844-1.2558594-.8525391-.8369141-1.2753906-1.8417969-1.2753906-3.0185547 0-1.8046875.7822266-3.1835938 2.3505859-4.1347656 1.5693359-.9550781 3.859375-1.4306641 6.8710938-1.4306641v-.2773438c0-1.0537109-.2871094-1.8808594-.8652344-2.4677734-.5810547-.5888672-1.4404297-.8818359-2.578125-.8818359-1.5166016 0-2.8681641.3779297-4.0556641 1.1386719l-.6484375-1.8769531c1.4355469-.9023438 3.1464844-1.3525391 5.1357422-1.3525391 1.9345703 0 3.4003906.5322266 4.3896484 1.5986328.9882815 1.064453 1.4794924 2.602539 1.4794924 4.6103515zm-2.7958984 3.9355469v-2.4589844c-2.3974609 0-4.0615234.2880859-4.9980469.8613281-.9306641.5722656-1.3964844 1.3632813-1.3964844 2.3671875 0 .7900391.2363281 1.4033203.7011719 1.8476563.4658203.4482422 1.0820313.671875 1.8486328.671875 1.0878906 0 1.9990234-.3378906 2.7382813-1.0078125.7382812-.6728516 1.1064453-1.428711 1.1064453-2.28125zm7.2548828 5.0732421v-10.1445313c0-1.9267578-.0410156-3.5058594-.1220703-4.734375h2.5214844l.1826172 2.9824219c.3798828-1.0458984.9589844-1.8623047 1.7373047-2.4462891.7802734-.5830078 1.6240234-.875 2.5371094-.875.1933594 0 .4511719.0214844.7685547.0625v2.703125c-.2783203-.0595703-.6044922-.0927734-.984375-.0927734-1.0351563 0-1.9208984.4072266-2.6640625 1.2158203-.7431641.8105469-1.1171875 1.9619141-1.1171875 3.4589844v7.8701172h-2.8593751zm11.7753906-17.6464843 2.7978516-.8310547v3.5986328h3.9667969v2.1816406h-3.9667969v7.7480469c0 1.0341797.1689453 1.7773438.5019531 2.2324219.3339844.4560547.8613281.6875 1.5878906.6875.6660156 0 1.2099609-.0615234 1.6289063-.1845703l.1240234 2.1523438c-.7080078.2666016-1.5566406.4013672-2.5517578.4013672-2.7265625 0-4.0888672-1.703125-4.0888672-5.1064453v-7.9306641h-2.3369141v-2.1816406h2.3369141v-2.7675782zm16.6318359 17.6464843V150.883789h2.8623047v9.3769531h.0585938c.5029297-.8408203 1.2041016-1.5019531 2.1015625-1.9833984s1.8134766-.7226563 2.7558594-.7226563c1.5371094 0 2.8193359.5488281 3.84375 1.6494141 1.0283203 1.1025391 1.5380859 2.7158203 1.5380859 4.8378906v8.7304688h-2.8574219v-8.4238281c0-1.4052734-.3046875-2.4951172-.9082031-3.2695313-.6044922-.7724609-1.4824219-1.15625-2.6298828-1.15625-.9736328 0-1.8642578.3623047-2.6816406 1.0957031-.8125.7333984-1.2207031 1.6796875-1.2207031 2.8378906v8.9160156h-2.8623048v1e-7zm31.6982422-7.5927734c0 1.5986328-.3330078 2.9970703-1.0019531 4.1953125-.6640625 1.1992188-1.5966797 2.1201172-2.7949219 2.7666016-1.2021484.6464844-2.4951172.9707031-3.8876953.9707031-2.1767578 0-3.9667969-.7148438-5.3837891-2.1337891-1.4130859-1.4199219-2.1181641-3.2587891-2.1181641-5.5234375 0-2.4072266.7304688-4.3291016 2.1914063-5.7578125 1.4609375-1.4316406 3.2988281-2.1425781 5.5244141-2.1425781 2.2138672 0 4.0126953.7070313 5.3935547 2.1259766 1.3847656 1.4199218 2.0771484 3.2529297 2.0771484 5.4990234zm-12.2685547.1835938c0 1.6289063.4355469 2.9726563 1.3085938 4.0332031.8710938 1.0595703 1.9619141 1.5917969 3.2753906 1.5917969 1.3427734 0 2.4619141-.5322266 3.359375-1.5976563.8964844-1.0644531 1.3427734-2.4404297 1.3427734-4.1181641 0-1.5498047-.4121094-2.8710938-1.2363281-3.9619141-.8242188-1.0927734-1.9511719-1.6357422-3.375-1.6357422-1.4453125 0-2.5810547.5371094-3.4199219 1.6201172-.8330078 1.0800782-1.2548828 2.4375001-1.2548828 4.0683595zm15.7431641 7.4091796v-10.7910156c0-1.6494141-.0429688-3.0126953-.1230469-4.0878906h2.4892578l.2158203 2.4267578c1.1054688-1.8427734 2.7246094-2.765625 4.8554688-2.765625.9853516 0 1.8613281.2666016 2.6230469.7998047.7666016.5322266 1.3457031 1.2695313 1.7441406 2.2128906 1.21875-2.0068359 2.9189453-3.0126953 5.1035156-3.0126953 1.4736328 0 2.6894531.5585938 3.6425781 1.6738281.9521484 1.1191406 1.4287109 2.7529297 1.4287109 4.90625v8.6376953h-2.7958984v-8.2978516c0-1.4794922-.2832031-2.6113281-.8525391-3.3994141-.5693359-.7900391-1.3818359-1.1845703-2.4394531-1.1845703-.9101563 0-1.71875.3486328-2.4326172 1.0527344-.7119141.6982422-1.0693359 1.6025391-1.0693359 2.6972656v9.1318359h-2.7998047v-8.7929688c0-1.2617188-.28125-2.2597656-.84375-2.9921875-.5634766-.734375-1.3378906-1.0966797-2.3242188-1.0966797-.9501953 0-1.7910156.4003906-2.5234375 1.2001953-.7333984.7978516-1.1025391 1.7314453-1.1025391 2.7949219v8.8867188h-2.7958983v1e-7zm38.8876953-6.8574218h-10.7890625c.0419922 1.6103516.5361328 2.8398438 1.4902344 3.6953125s2.1884766 1.2871094 3.7050781 1.2871094c1.6474609 0 3.0947266-.2568359 4.3349609-.7695313l.4931641 2c-1.4667969.6542969-3.1982422.984375-5.1972656.984375-2.3173828 0-4.1582031-.6865234-5.5332031-2.0615234-1.3720703-1.3720703-2.0605469-3.1982422-2.0605469-5.4726563 0-2.2763672.6630859-4.1816406 1.9794922-5.71875s3.0849609-2.3046875 5.3056641-2.3046875c2.0507813 0 3.6230469.6816406 4.7197266 2.0478516 1.0976563 1.3691406 1.6464844 3.0458984 1.6464844 5.0234375-1e-7 .5634765-.0312501.993164-.0947267 1.2890625zm-10.7597656-2.0585938h8.0859375c0-1.28125-.3271484-2.3144531-.9892578-3.0976563-.6611328-.7851563-1.6044922-1.1757813-2.8242188-1.1757813-1.15625 0-2.1142578.390625-2.8740234 1.1757813-.7558594.7832032-1.2236328 1.8164063-1.3984375 3.0976563z" clip-rule="evenodd"/>
  <path fill="#474747" fill-rule="evenodd" d="M650.4755859 107.9570313v25.6582031h16.7949219l.9980469-.0078125.9609375-.0185547.921875-.03125.8876953-.0458984.8486328-.0556641.8134766-.0693359.7783203-.0791016.7373047-.0917969.7011719-.1044922.6621094-.1132813.6269531-.1269531.5849609-.1347656.5478516-.1455078.5058594-.1523438.4707031-.1630859.4160156-.1640625.8417969-.3916016.7958984-.4384766.7451172-.4814453.703125-.5283203.6542969-.5751953.6171875-.6269531.5751953-.6767578.5361328-.7314453.4882813-.7685547.4179688-.7773438.3535156-.7919922.2871094-.8056641.2226563-.8212891.1611328-.8408203.0927734-.8632813.0341797-.8789063-.0458984-1.0888672-.1347656-1.0419922-.2246094-1.0039063-.3115234-.9638672-.4003906-.9365234-.4921875-.9033203-.5869141-.8808594-.6787109-.8486328-.7597656-.7998047-.8320313-.734375-.9042969-.6748047-.9765625-.6083984-1.0576172-.5478516-1.1328125-.4863281-1.2197266-.4208984-1.3076172-.3564453-.4423828-.0976563-.5039063-.0947266-.5517578-.0898438-.6054688-.0830078-.65625-.0800781-.7001953-.0712891-.7480469-.0654297-.7958984-.0576172-.8476563-.0507813-.8886719-.0458984-.9345703-.0380859-.9814453-.0292969-1.0283203-.0244141-1.0712891-.0175781-1.1152344-.0117188-1.1640625-.0019531h-11.6826172v5e-7zm0-31.9375v20.8564453h11.7294922l.9511719-.0058594.9121094-.015625.8789063-.0302734.84375-.0380859.8076172-.0507813.7773438-.0615234.7421875-.0712891.7021484-.0820313.6708984-.0927734.6347656-.1035156.5966797-.1132813.5576172-.1230469.5244141-.1328125.4863281-.1367188.4462891-.1484375.4042969-.1513672.8076172-.3525391.7460938-.3916016.6982422-.4326172.6552734-.4755859.6103516-.5224609.5712891-.5625.5302734-.6132813.4921875-.6591797.4423828-.6923828.3808594-.7041016.3193359-.7246094.2636719-.7402344.2041016-.7597656.1474609-.7851563.0888672-.8115234.0302734-.8291016-.0517578-1.1152344-.1445313-1.0263672-.2402344-.9443359-.3271484-.8710938-.4189453-.8095703-.5097658-.74707-.6074219-.7011719-.7138672-.6601563-.3652344-.2763672-.4150391-.2753906-.4521484-.2617188-.4863281-.2460938-.5253906-.2304688-.5615234-.2138672-.59375-.1962891-.6367188-.1767578-.6767578-.1591797-.7099609-.1386719-.7460938-.1171875-.7890625-.0986328-.8222656-.078125-.8564453-.0527344-.8994141-.0341797-.9423828-.0117188h-16.1621094v4e-7zm20.3251954-10.3544922.984375.0976563.9541016.1132813.9248047.1308594.890625.1503906.8652344.1669922.8330078.1865234.8076172.2080078.7734375.2265625.7480469.2460938.71875.2675781.6982422.2919922 1.28125.6191406 1.2304688.7080078 1.1621094.7919922 1.0917969.8681641 1.0195313.953125.9482422 1.03125.8710938 1.1054688.7880859 1.1660156.3769531.6210938.3447266.6191406.3232422.6269531.2998043.6386717.2744141.6455078.2519531.6523438.2255859.6611328.2070313.6699219.1757813.6767578.1572266.6845703.1308594.6904297.1074219.6982422.0810547.7050781.0615234.7099609.0332031.7197266.0166015.7363281-.0458984 1.3515625-.125 1.3349609-.2158203 1.3076172-.2978516 1.2832031-.3847656 1.2480469-.4707031 1.21875-.5498047 1.1865234-.6367188 1.1621094-.7304688 1.1191406-.8027344 1.0576172-.8847656 1.0039063-.9628906.9482422-1.0390625.8876953-.5419922.4042969 1.0039063.4404297 1.2578125.6171875 1.1689453.640625 1.0927734.6689453 1.0058594.6962891.9287109.7285156.8476563.7597656.7910156.7929688.7460938.8320313.7001953.8710938.6513672.9082031.6044922.9462891.5576172.984375.5185547 1.0273438.4560547 1.0556641.3945313 1.0810547.3310547 1.1015625.2763672 1.1230469.2080078 1.1445313.1533203 1.1650391.0908203 1.1845703.0302734 1.2021484-.0302734 1.2158203-.0810547 1.1943359-.1425781 1.1728516-.1992188 1.1572266-.2558594 1.1328125-.3115234 1.1083984-.3691406 1.0878906-.4257813 1.0673828-.484375 1.0390625-.5400391 1.0166016-.5947266.9873047-.6513672.9667965-.7041016.9365234-.7578125.9121094-.8134766.8857422-.8691406.8642578-.9248047.8261719-.9619141.7695313-1.0019531.7177734-1.0380859.6669922-1.0751953.6113281-1.1113281.5556641-1.1464844.5039063-1.1826172.4501953-1.2197266.3945313-1.2480469.3417969-1.2841797.2851563-1.3154297.2363281-1.3486328.1806641-1.3808594.1289063-1.4130859.0771484-1.4306641.0283203h-31.6669922V65.4511719h25.8261719l1.1269531.0078125 1.1074219.0263672 1.0751953.0410156 1.0458984.0615234 1.0136721.0771485zm-178.8691407-.203125h11.0615234v31.8330078h35.1767578V65.4619141h11.0283203V144.78125h-11.0283203v-36.5800781H502.993164V144.78125h-11.0615234V65.4619141zm89.2226563 50.0283203h26.9257813l-13.4199219-28.4931641-13.5058594 28.4931641zm31.8798828 10.8046875h-36.8642578l-8.7509766 18.4599609h-12.2441406l37.4794922-79.3037109h4.0429688l36.9492188 79.3037109h-11.8798828l-3.1611328-6.6347656-5.5712892-11.8251953z" clip-rule="evenodd"/>
  <path fill="#E64A19" fill-rule="evenodd" d="m249.2871094 83.4287109 1.6533203.0390625 1.6220703.1123047 1.5908203.1904297 1.5595703.2666016 1.5253906.3427734 1.4960938.421875 1.4599609.4980469 1.4257813.5761719 1.3876953.6503906 1.3535156.7285156 1.3154297.8037109 1.2783203.8798828 1.2392578.953125 1.2011719 1.0283203 1.1630859 1.1005859 1.1289063 1.1787109.9736328 1.1298828.9072266 1.1513672.8466797 1.1796875.7851563 1.2089844.7226563 1.2333984.6611328 1.2617188.5976563 1.2871094.5351563 1.3144531.4716797 1.3378906.4082031 1.3623047.3457031 1.3857422.2832031 1.4111328.21875 1.4326172.15625 1.4570313.0927734 1.4765625.0322266 1.5039063-.0341797 1.5019531-.0996094 1.4863281-.1660156 1.4619141-.2324219 1.4443359-.3007813 1.4189453-.3662109 1.3984375-.4335938 1.3740234-.5 1.3515625-.5683594 1.3261719-.6328125 1.3007813-.6982422 1.2734375-.7646484 1.25-.8310547 1.2226563-.8935547 1.1972656-.9580078 1.1679688-1.0244141 1.1464844-1.0839844 1.1035156-1.1259766 1.0371094-1.1660156.9667969-1.2050781.9003906-1.2460938.8261719-1.2832031.7558594-1.3212891.6835938-1.359375.6152344-1.3984375.5371094-1.4326172.46875-1.4667969.3945313-1.5009766.3242188-1.5380859.2480469-1.5683594.1777344-1.6035156.109375-1.6347656.0351563-1.6464844-.0351563-1.6113281-.1074219-1.5751953-.1796875-1.5419922-.2480469-1.5087891-.3242188-1.4716797-.3945313-1.4335938-.46875-1.3974609-.5371094-1.3623047-.6152344-1.3232422-.6835938-1.2832031-.7558594-1.2431641-.828125-1.2050781-.8984375-1.1640625-.9667969-1.1240234-1.0390625-1.0791016-1.1015625-1.0234375-1.1464844-.9589844-1.1679688-.8945313-1.1972656-.828125-1.2226563-.7646484-1.25-.6972656-1.2753906-.6318359-1.3027344-.5644531-1.3242188-.4990234-1.3505859-.4316406-1.375-.3652344-1.3984375-.2988281-1.4199219-.2314453-1.4433594-.1650391-1.4619141-.0986328-1.484375-.03125-1.5019531.0292969-1.4960938.09375-1.4716797.15625-1.4521484.2197266-1.4277344.28125-1.40625.3447266-1.3837891.4101563-1.3603516.4716797-1.3320313.5332031-1.3105469.5996094-1.2841797.6601563-1.2607422.7246094-1.2304688.7841797-1.2060547.8466797-1.1787109.9082031-1.1523438.9726563-1.1269531 1.1240234-1.1826172 1.1630859-1.1083984 1.2001953-1.0332031 1.2412109-.9580078 1.2773438-.8857422 1.3173828-.8085938 1.3544922-.7324219 1.3896484-.6542969 1.4238281-.5791016 1.4628906-.5009766 1.4951172-.4238281 1.5302734-.34375 1.5605469-.2705078 1.5947266-.1914063 1.6259766-.1123047 1.658203-.039062zm0 10.3427735-1.0146484.0224609-.9902344.0703125-.9697266.1171875-.9492188.1650391-.9296875.2099609-.9082031.2578125-.8925781.3027344-.8720703.3515625-.8583984.3964844-.8388672.4433594-.8242188.4931641-.8085938.5419922-.7939453.5888672-.7783203.640625-.7636719.6884766-.7470703.7412109-.71875.7734375-.6669922.7900391-.6201172.8066406-.5712891.8261719-.5263672.84375-.4785156.8613281-.4335938.8789063-.3867188.9013672-.3427734.9189453-.296875.9365234-.25.9599609-.2060547.9833984-.1621094 1.0029297-.1132813 1.0253906-.0693359 1.0498047-.0224609 1.0800781.0087891.6865234.0322266.6884766.0507813.6787109.0742188.6738281.09375.6689453.1142578.6621094.1357422.6542969.1582031.6533203.1757813.6445313.1982422.640625.21875.6328125.2402344.6279297.2617188.6240234.2822266.6181641.3037109.6132813.3193359.5986328.7041016 1.1796875.7548828 1.0957031.8105469 1.0234375.8681641.9511719.9248047.8789063.984375.8125 1.0439453.7460938 1.1191406.6855469.5556641.3027344.5761719.2910156.5839844.2695313.5908203.25.5947266.2304688.6015625.2089844.6103516.1914063.6162109.1699219.6210938.1484375.6328125.1308594.6376953.1113281.6445313.0898438.6513672.0703125.6640625.0507813.6689453.03125.6767578.0097656.6835938-.0097656.6777344-.03125.6708984-.0507813.6601563-.0703125.6494141-.0898438.6445313-.1132813.6376953-.1289063.6279297-.1484375.6162109-.1699219.6132813-.1914063.6054688-.2109375.5986328-.2285156.5898438-.25.5859375-.2695313.5791016-.2910156.5527344-.3007813 1.1005859-.6835938 1.0341797-.7441406.9765625-.8125.9179688-.8808594.8632813-.953125.8085938-1.0214844.7529297-1.0996094.7041016-1.1777344.3125-.59375.3027344-.6152344.2802734-.6181641.2597656-.6240234.2373047-.6289063.21875-.6347656.1982422-.6425781.1757813-.6425781.1552734-.6523438.1367188-.65625.1132813-.6640625.0957031-.6679688.0722656-.6738281.0527344-.6806641.0322266-.6884766.0107422-.6855469-.0244141-1.0761719-.0703125-1.0498047-.1162109-1.0273438-.1611328-1.0019531-.2080078-.9814453-.2519531-.9609375-.2978516-.9394531-.3427734-.9179688-.3896484-.8994141-.4335938-.8808594-.4814453-.8613281L265.7890625 103l-.5732422-.8271484-.6210938-.8066406-.6679688-.7910156-.7158203-.7724609-.75-.7412109-.7636719-.6884766-.7792969-.640625-.7929686-.5888673-.8095703-.5410156-.8242188-.4941406-.8388672-.4443359-.8554688-.3955078-.8740234-.3515625-.890625-.3027344-.9091797-.2578125-.9257813-.2099609-.9472655-.1650392-.9667969-.1171875-.9882813-.0703125-1.0078124-.0224609zm165.7685547 35.0771484-.8007813 1.4003906-.8349609 1.3320313-.8701172 1.2617188-.9091797 1.1933594-.9453125 1.1230469-.984375 1.0527344-1.0185547.9785156-1.0429688.9101563-1.0751953.8535156-1.109375.7949219-1.1416016.7421875-1.1757813.6835938-1.2060547.6289063-1.2402344.5703125-1.2597656.5117188-.6591797.2402344-.6572264.2207028-.6689453.2050781-.6777344.1894531-.6865234.1757813-.6962891.1601563-.7060547.1445313-.7167969.1308594-.7265625.1132813-.734375.0976563-.7431641.0839844-.7509766.0703125-.7636719.0527344-.7695313.0371094-.7792969.0234375-.796875.0078125-1.7294922-.0371094-1.6943359-.109375-1.6523438-.1796875-1.6083984-.2539063-1.5654297-.328125-1.5214844-.4023438-1.4755859-.4785156-1.4316406-.5507813-1.3857422-.6269531-1.3359375-.7011719-1.2910156-.7773438-1.2392578-.8496094-1.1914063-.9257813-1.140625-.9960938-1.0878906-1.0703125-1.03125-1.1328125-.9697266-1.1738281-.9042969-1.1855469-.8427734-1.2089844-.7802734-1.2304688-.7216797-1.25-.6582031-1.2734375-.5966797-1.2910156-.5322266-1.3105469-.4726563-1.3310547-.4082031-1.3525391-.3457031-1.3691406-.28125-1.3867188-.2197266-1.40625-.15625-1.4228516-.09375-1.4394531-.0302734-1.4521484.0253906-1.375.0800781-1.3554688.1318362-1.338867.1865234-1.3212891.2373047-1.3046875.2939453-1.2861328.3457031-1.2685547.4023438-1.2490234.4521484-1.2304688.5068359-1.2099609.5595703-1.1933594.6142578-1.1699219.6630859-1.1523438.7167969-1.1308594.7695313-1.1113281.8242188-1.0917969 1.0888672-1.3310547 1.1474609-1.2529297 1.1962891-1.1728516 1.2470703-1.0869141 1.2949219-1.0029297 1.3457031-.9160156 1.3916016-.8300781 1.4394531-.7412109 1.484375-.65625 1.5302734-.5664063 1.5732422-.4804688 1.6191406-.3886719 1.65625-.3037109 1.6992188-.2158203 1.7392578-.1279297 1.7792969-.0439453 1.8183594.0439453 1.7773438.1318359 1.7373047.2207031 1.6962891.3115234 1.6542969.3974609 1.6123047.4902344 1.5693359.5791016 1.5234375.671875 1.4755859.7587891 1.4306641.8486328 1.3818359.9365234 1.3349609 1.0253906 1.2841797 1.109375 1.2363281 1.1982422 1.1845703 1.2822266 1.1328125 1.3652344.7705078 1.0195313.7216797 1.0507813.6738281 1.0820313.6240234 1.1152344.5712891 1.140625.5244141 1.1748047.4736328 1.2041016.4257813 1.234375.3730469 1.2587891.3251953 1.2900391.2753906 1.3144531.2265625 1.3466797.1757813 1.3710938.1289063 1.4003906.0791016 1.4248047.0693359 3.1640625h-49.5400391l.0390625.4980469.1259766 1.0683594.1689453 1.0410156.2089844 1.0097656.2519531.9804688.2919922.9541016.3339844.9267578.3720703.8984375.4150391.8710938.4550781.84375.4990234.8222656.5380859.7949219.5810547.7714844.6230469.7460938.6699219.7265625.6943359.6894531.7138672.6445313.7304688.5957031.7490234.5527344.7675781.5039063.7851563.4628906.8027344.4160156.8242188.3730469.8427734.3300781.8632813.2851563.8857422.2402344.9082031.2011719.9277344.1542969.9521484.1113281.9746094.0683594.9990234.0214844.9824219-.0214844.9746094-.0664063.9638672-.1074219.9570313-.1484375.9462891-.1933594.9404297-.2363281.9345703-.2792969.9248047-.3183594.9052734-.3632813.8789063-.3886719.8378906-.4160156.8017578-.4394531.7626953-.4648438.7265625-.4882813.6865234-.5136719.6484375-.5332031.6328125-.5839844.6582031-.6796875.6845703-.78125.7080078-.8808594.7314453-.9824219.7519531-1.0839844.7714844-1.1806641L407.75 121.1923828l8.8349609 4.7246094-1.5292968 2.9316406zm-11.0107422-26.633789-.5576172-.8662109-.5859375-.7900391-.6367188-.7412109-.6923828-.7119141-.7421875-.6787109-.7949219-.6435547-.8486328-.6103516-.9013672-.5742188-.9589844-.5400391-1.0244141-.5087891-.5146484-.2304688-.5244141-.2207031-.5292969-.2041016-.5273438-.1884766-.5341797-.1738281-.5351563-.1601563-.5380859-.1425781-.5429688-.1289063-.5458984-.1142578-.5458984-.0986328-.5507813-.0820313-.5566406-.0683594-.5566406-.0546875-.5585938-.0380859-.5644531-.0205078-.5625-.0078125-.9414063.0195313-.9140625.0566406-.8945313.09375-.875.1328125-.8574219.1679688-.8388672.2089844-.8212891.2421875-.8046875.2822266-.7900391.3154297-.7685547.3554688-.7558594.3925781-.7392578.4316406-.7265625.46875-.7080078.5078125-.6962891.5458984-.6787109.5849609-.46875.4404297-.4541016.46875-.4423828.4990234-.4287109.5283203-.4179688.5546875-.4023433.5859377-.3916016.6162109-.3779297.6484375-.3662109.6777344-.3505859.7080078-.3378906.7382813-.3232422.7705078-.3105469.8007813-.1533203.4326172h36.5224609l-.1445313-.4589844-.4277344-1.1689453-.4609375-1.0917969-.4960938-1.015625-.526367-.9423828zM318.796875 83.4287109l1.6533203.0390625 1.6220703.1123047 1.5908203.1904297 1.5595703.2666016 1.5263672.3427734 1.4951172.421875 1.4599609.4980469 1.4257813.5761719 1.3876953.6503906 1.3535156.7285156 1.3154297.8037109 1.2783203.8798828 1.2392578.953125 1.2011719 1.0283203 1.1630859 1.1005859 1.1289063 1.1787109.9736328 1.1298828.9072266 1.1513672.8466797 1.1796875.7851563 1.2089844.7226563 1.2333984.6611328 1.2617188.5976563 1.2871094.5351563 1.3144531.4716797 1.3378906.4082031 1.3623047.3457031 1.3857422.2832031 1.4111328.21875 1.4326172.15625 1.4570313.0927734 1.4765625.0322266 1.5039063-.0341797 1.5019531-.0996094 1.4863281-.1660156 1.4619141-.2324219 1.4443359-.3007813 1.4189453-.3662109 1.3984375-.4335938 1.3740234-.5 1.3515625-.5683594 1.3261719-.6328125 1.3007813-.6982422 1.2734375-.7646484 1.25-.8310547 1.2226563-.8935547 1.1972656-.9580078 1.1679688-1.0244141 1.1464844-1.0839844 1.1035156-1.1259766 1.0371094-1.1660156.9667969-1.2050781.9003906-1.2460938.8261719-1.2832031.7558594-1.3212891.6835938-1.359375.6152344-1.3984375.5371094-1.4326172.46875-1.4667969.3945313-1.5009766.3242188-1.5380859.2480469-1.5683594.1777344-1.6035156.109375-1.6347656.0351563-1.6464844-.0351563-1.6113281-.1074219-1.5751953-.1796875-1.5419922-.2480469-1.5087891-.3242188-1.4716797-.3945313-1.4335938-.46875-1.3974609-.5371094-1.3623047-.6152344-1.3232422-.6835938-1.2832031-.7558594-1.2431641-.828125-1.2050781-.8984375-1.1640625-.9667969-.0273438-.0253906v28.1689453H288.347656v-51.3095703l-.0058594-.296875.0058594-.3134766v-.1591797h.0029297l.0205078-1.0234375.09375-1.4716797.15625-1.4521484.2197266-1.4277344.28125-1.40625.3447266-1.3837891.4101563-1.3603516.4716797-1.3320313.5332031-1.3105469.5996094-1.2841797.6601563-1.2607422.7246094-1.2304688.7841797-1.2060547.8466797-1.1787109.9082031-1.1523438.9726563-1.1269531 1.1240234-1.1826172 1.1630859-1.1083984 1.2001953-1.0332031 1.2412109-.9580078 1.2773438-.8857422 1.3173828-.8085938 1.3544922-.7324219 1.3896484-.6542969 1.4238281-.5791016 1.4628906-.5009766 1.4951172-.4238281 1.5302734-.34375 1.5605469-.2705078 1.5947266-.1914063 1.6259766-.1123047 1.6582032-.0390622zm-19.7949219 31.7050782v-1.1513672l.0126953-.6210938.0693359-1.0498047.1132813-1.0253906.1621094-1.0029297.2060547-.9833984.25-.9599609.296875-.9365234.3427734-.9189453.3867188-.9013672.4335938-.8789063.4785156-.8613281.5263672-.84375.5712891-.8261719.6201172-.8066406.6669922-.7900391.71875-.7734375.7470703-.7412109.7636719-.6884766.7783203-.640625.7939453-.5888672.8085938-.5419922.8242188-.4931641.8378906-.4433594.859375-.3964844.8720703-.3515625.8925781-.3027344.9082031-.2578125.9296875-.2099609.9492188-.1650391.9697266-.1171875.9902344-.0703125 1.0146484-.0224609 1.0078125.0224609.9882813.0703125.9667969.1171875.9472656.1650391.9257813.2099609.9091797.2578125.890625.3027344.8740234.3515625.8554688.3955078.8388672.4443359.8242188.4941406.8095703.5410156.7929688.5888672.7792969.640625.7636719.6884766.75.7412109.7158203.7724609.6679688.7910156.6210938.8066406.5732416.8271487.5263672.84375.4814453.8613281.4335938.8808594.3896484.8994141.3427734.9179688.2978516.9394531.2519531.9609375.2080078.9814453.1611328 1.0019531.1162109 1.0273438.0703125 1.0498047.0244141 1.0761719-.0107422.6855469-.0322266.6884766-.0527344.6806641-.0732422.6738281-.0947266.6679688-.1132813.6640625-.1367188.65625-.1552734.6523438-.1757813.6425781-.1982422.6425781-.21875.6347656-.2373047.6289063-.2597656.6240234-.2802734.6181641-.3027344.6152344-.3125.59375-.7041016 1.1777344-.7529297 1.0996094-.8085938 1.0214844-.8632813.953125-.9179688.8808594-.9765625.8125-1.0341797.7441406-1.1005859.6835938-.5527344.3007813-.5791016.2910156-.5859375.2695313-.5898438.25-.5986328.2285156-.6054688.2109375-.6132813.1914063-.6162109.1699219-.6279297.1484375-.6376953.1289063-.6445313.1132813-.6494141.0898438-.6601563.0703125-.6708984.0507813-.6777344.03125-.6835938.0097656-.6767578-.0097656-.6689453-.03125-.6640625-.0507813-.6513672-.0703125-.6445313-.0898438-.6376953-.1113281-.6328125-.1308594-.6210938-.1484375-.6162109-.1699219-.6103516-.1914063-.6015625-.2089844-.5947266-.2304688-.5908203-.25-.5839844-.2695313-.5761719-.2910156-.5556641-.3027344-1.1191406-.6855469-1.0439453-.7460938-.984375-.8125-.9248047-.8789063-.8681641-.9511719-.8105469-1.0234375-.7548828-1.0957031-.7041016-1.1796875-.3193359-.5986328-.3037109-.6132813-.2822266-.6181641-.2617188-.6240234-.2402344-.6279297-.21875-.6328125-.1982422-.640625-.1757813-.6445313-.1582031-.6533203-.1357411-.6542971-.1142578-.6621094-.09375-.6689453-.0742188-.6738281-.0507813-.6787109-.0312499-.6826172zm154.28125-31.6181641c-4.6210938 0-10.7802734 1.1132813-14.7412109 3.3994141-4.0058594 2.3144531-6.9072266 5.4775391-8.6259766 9.4013672-1.6923828 3.8710938-2.5146484 9.6679688-2.5146484 17.7236328v30.7255859h10.4511719v-28.5986328c0-6.4208984.2714844-10.7353516.8066406-12.8251953.8085938-3.4316406 2.3105469-5.7519531 4.5996094-7.1240234 2.375-1.4238281 5.1835938-2.6015625 10.0214844-2.6015625 4.8369141 0 7.5908203 1.1865234 9.9658203 2.6103516 2.2890625 1.3710938 3.7910156 3.6923828 4.5996094 7.1240234.5351563 2.0898438.8066406 6.4042969.8066406 12.8242188v28.5996094h10.4511719v-30.7255859c0-8.0556641-.8222656-13.8525391-2.5146484-17.7236328-1.71875-3.9238281-4.6201172-7.0869141-8.6259766-9.4013672-3.9609376-2.2871095-10.0585938-3.4082033-14.6796876-3.4082033z" clip-rule="evenodd"/>
  <g fill-rule="evenodd" clip-rule="evenodd">
    <path fill="#E64A19" d="m43.8920898 140.7089844 63.7749023-63.8232422 9.2866211-9.2880859 9.2880859 9.2880859 47.0786133 47.0742188-.0703124.2412109-.9287109 2.7324219-1.0517578 2.6738281-1.1845703 2.6025391-1.3061523 2.5478516-1.1850586 2.0527344-50.6401368-50.638672c-22.0947266 22.1132813-44.1889648 44.2275391-66.2861328 66.3408203-2.5527344-3.7578125-4.9204102-7.6279297-6.7753907-11.8037109z"/>
    <path fill="#474747" d="M116.9555664 24.3491211c44.8876953 0 81.4956055 36.6079102 81.4956055 81.5014648 0 44.8837891-36.6079102 81.4941406-81.4956055 81.4941406-24.5185547 0-46.5629883-10.9345703-61.5229492-28.1601563l2.878418-2.8935547 2.0922852-2.0878906 2.0942383-2.1025391 2.0952148-2.0976563.0849609-.0751953c12.5683594 14.8798828 31.3461914 24.3583984 52.277832 24.3583984 37.6962891 0 68.4404297-30.7412109 68.4404297-68.4355469 0-37.703125-30.7441406-68.4453125-68.4404297-68.4453125-37.6992188 0-68.4414063 30.7421875-68.4414063 68.4453125 0 5.0722656.5644531 10.0185547 1.621582 14.7871094l-4.5415039 4.5507813-6.0610352 6.0664063c-2.6396484-8.0009766-4.0742188-16.5390625-4.0742188-25.4042969 2e-7-44.8935545 36.6064455-81.5014647 81.4965822-81.5014647z"/>
  </g>
  <path fill="none" stroke="#474747" stroke-miterlimit="10" stroke-width="4.5" d="M732.6318359 175.0087891c0 18.0039063-14.5947266 32.5986328-32.5986328 32.5986328H34.8759766c-18.0039063 0-32.5986328-14.5947266-32.5986328-32.5986328V34.8730469c0-18.0039063 14.5947266-32.5996094 32.5986328-32.5996094h665.1572266c18.0039063 0 32.5986328 14.5957031 32.5986328 32.5996094v140.1357422z"/>
  <path fill="#474747" d="m244.6303711 65.3359375-4.4067383-13.7558594c-.9111328-2.8945313-1.6635742-5.4658203-2.3115234-8.3505859-.7036133 3.1542969-1.5527344 5.8994141-2.3735352 8.4101563l-4.6450195 13.6962891h-5.109375l-8.7412109-28.9775391h5.8837891l3.8369141 14.7490234c.7226563 2.7880859 1.409668 5.4365234 1.9223633 8.0556641.5820313-2.4130859 1.3359375-4.90625 2.1289063-7.5292969L231.0063477 51l4.7021484-14.6416016h4.7592773l4.4643555 14.4052734c.972168 3.1328125 1.7158203 5.8173828 2.3149414 8.3613281.5141602-2.8095703 1.2670898-5.6367188 2.0136719-8.2949219l4.1088867-14.4716797h5.7104492l-9.3398438 28.9775391h-5.1098632zm30.2060547.6455078c-8.1855469 0-13.9023438-6.1269531-13.9023438-14.8994141 0-9.1933594 5.7758789-15.3691406 14.3720703-15.3691406 8.3500977 0 13.9609375 5.9873047 13.9609375 14.8994141 0 10.6171875-7.2480468 15.3691406-14.430664 15.3691406zm.3520508-25.828125c-5.8457031 0-8.4624023 5.4003906-8.4624023 10.7529297 0 6.1621094 3.5097656 10.6347656 8.3452148 10.6347656s8.3452148-4.5224609 8.3452148-10.7529297c0-5.1220703-2.574707-10.6347656-8.2280273-10.6347656zm20.0288086 25.1826172V45.5058594c0-3.6894531-.0717773-6.4179688-.2338867-8.8457031l-.0205078-.3017578h5.0976563l.1582031 5.0029297c1.4594727-3.4580078 4.4648438-5.6484375 7.8442383-5.6484375.574707 0 1.0053711.0517578 1.5361328.1835938l.2148438.0537109v5.4472656l-.3452148-.0771484c-.5341797-.1181641-1.0424805-.1689453-1.6992188-.1689453-3.331543 0-5.940918 2.5126953-6.6479492 6.4003906-.1132813.6806641-.2299805 1.4960938-.2299805 2.3564453v15.4277344h-5.6743165zm37.1206054 0-9.6821289-13.4501953-2.3334961 2.5917969v10.8583984h-5.6743164V23.0917969h5.6743164v25.8701172c.6660156-.8964844 1.4746094-1.890625 2.1391602-2.6982422l8.4233398-9.9052734h7.0083008L326.6303711 48.34375l12.699707 16.9921875h-6.9921875zm16.1132813.6455078c-2.9672852 0-5.9296875-.7412109-8.1269531-2.0351563l-.1962891-.1152344 1.4770508-4.5009766.3095703.2021484c1.5288086 1 4.1791992 2.0087891 6.6542969 2.0087891 3.2773438 0 5.2338867-1.4746094 5.2338867-3.9433594 0-2.2714844-1.3334961-3.5683594-5.097168-4.9589844-5.0356445-1.7939453-7.6992188-4.6669922-7.6992188-8.3076172 0-5.0742188 4.1479492-8.6181641 10.0864258-8.6181641 2.5625 0 5.2280273.6728516 7.1298828 1.7998047l.1987305.1181641-1.4833984 4.3134766-.3027344-.1914063c-.9462891-.5966797-2.9399414-1.5996094-5.659668-1.5996094-2.6743164 0-4.4711914 1.4433594-4.4711914 3.5908203 0 2.1914063 1.609375 3.1748047 5.2177734 4.5488281 5.3535156 2.0400391 7.6376953 4.6816406 7.6376953 8.8349609 1e-7 5.3789065-4.2822265 8.8535159-10.9086913 8.8535159zm53.6816406-.6455078-4.40625-13.7558594c-.9121094-2.8974609-1.6660156-5.4697266-2.3115234-8.3505859-.703125 3.1523438-1.5527344 5.8984375-2.3740234 8.4101563l-4.6445313 13.6962891h-5.1113281l-8.7397461-28.9775391h5.8823242l3.8134766 14.6523438c.734375 2.8330078 1.4287109 5.5097656 1.9472656 8.1533203.5761719-2.3876953 1.3212891-4.8554688 2.1044922-7.4501953L388.5078125 51l4.703125-14.6416016h4.7597656l4.4638672 14.4052734c.9746094 3.1396484 1.71875 5.8242188 2.3144531 8.3603516.5136719-2.8007813 1.2666016-5.6308594 2.0126953-8.2939453l4.1103516-14.4716797h5.7109375l-9.3417969 28.9775391h-5.1083984zm18.9453125 0V36.3583984h5.7324219v28.9775391h-5.7324219zm2.75-33.2246094c-1.9355469 0-3.3945313-1.484375-3.3945313-3.453125 0-2.0019531 1.5097656-3.512207 3.5117188-3.512207 2.0332031 0 3.453125 1.4443359 3.453125 3.512207.03125.9189453-.2880859 1.7773438-.8974609 2.4082031-.6523438.6738282-1.6015625 1.0449219-2.6728516 1.0449219zm20.015625 33.8701172c-2.4208984 0-4.4765625-.8261719-5.7890625-2.3271484-1.4072266-1.4628906-2.0664063-3.8759766-2.0664063-7.5830078V40.8574219h-4.4023438v-4.4990234h4.4023438v-5.1494141l5.6152344-1.7626953v6.9121094H449v4.4990234h-7.3964844v15.0380859c0 3.6689453 1.0742188 5.234375 3.5917969 5.234375 1.3007813 0 2.1162109-.0957031 2.9091797-.3388672l.34375-.1064453.2705078 4.4355469-.1865234.0771484c-1.209961.4990235-2.9189453.7841797-4.6884766.7841797zm29.4199219-.6455078V48.734375c0-3.0507813-.8173828-8.1699219-6.2910156-8.1699219-3.453125 0-5.8320313 2.4970703-6.6572266 4.9716797-.28125.6796875-.3369141 1.4111328-.3369141 2.3759766v17.4238281h-5.7324219V23.0917969h5.7324219v17.2041016c.8486328-1.2460938 2.03125-2.3232422 3.3935547-3.0800781 1.7041016-.9824219 3.5800781-1.5029297 5.4208984-1.5029297 4.7070313 0 10.203125 3.2558594 10.203125 12.4335938v17.1894531h-5.7324218z"/>
</svg>
