<?xml version="1.0" encoding="UTF-8" standalone="no"?>
<!DOCTYPE svg PUBLIC "-//W3C//DTD SVG 1.1//EN" "http://www.w3.org/Graphics/SVG/1.1/DTD/svg11.dtd">
<svg width="100%" height="100%" viewBox="0 0 640 141" version="1.1" xmlns="http://www.w3.org/2000/svg" xmlns:xlink="http://www.w3.org/1999/xlink" xml:space="preserve" xmlns:serif="http://www.serif.com/" style="fill-rule:evenodd;clip-rule:evenodd;stroke-linejoin:round;stroke-miterlimit:2;">
    <g id="logo">
        <path id="empower_2_" d="M266.92,118.764L256.127,118.764C256.17,120.374 256.666,121.604 257.62,122.459C258.573,123.314 259.806,123.746 261.324,123.746C262.973,123.746 264.419,123.489 265.659,122.977L266.151,124.977C264.685,125.631 262.953,125.961 260.956,125.961C258.638,125.961 256.795,125.274 255.419,123.899C254.047,122.527 253.362,120.701 253.362,118.427C253.362,116.15 254.022,114.245 255.339,112.708C256.657,111.171 258.424,110.403 260.647,110.403C262.698,110.403 264.27,111.085 265.366,112.451C266.463,113.82 267.01,115.497 267.01,117.475C267.01,118.038 266.982,118.468 266.92,118.764ZM256.159,116.705L264.245,116.705C264.245,115.424 263.917,114.391 263.255,113.607C262.595,112.822 261.652,112.432 260.433,112.432C259.274,112.432 258.316,112.822 257.558,113.607C256.798,114.391 256.334,115.424 256.159,116.705ZM270.454,125.621L270.454,114.83C270.454,113.181 270.414,111.817 270.332,110.742L272.821,110.742L273.037,113.169C274.143,111.326 275.761,110.403 277.895,110.403C278.879,110.403 279.755,110.67 280.518,111.203C281.282,111.735 281.86,112.473 282.26,113.416C283.479,111.409 285.18,110.403 287.364,110.403C288.839,110.403 290.054,110.962 291.006,112.077C291.96,113.196 292.437,114.83 292.437,116.983L292.437,125.621L289.639,125.621L289.639,117.323C289.639,115.844 289.356,114.712 288.789,113.924C288.22,113.134 287.404,112.739 286.349,112.739C285.437,112.739 284.627,113.088 283.916,113.792C283.202,114.49 282.844,115.395 282.844,116.489L282.844,125.621L280.046,125.621L280.046,116.828C280.046,115.566 279.764,114.568 279.201,113.836C278.638,113.102 277.864,112.739 276.88,112.739C275.926,112.739 275.086,113.14 274.354,113.939C273.621,114.737 273.252,115.671 273.252,116.734L273.252,125.621L270.454,125.621ZM296.924,131.707L296.924,115.63C296.924,113.633 296.885,112.002 296.802,110.742L299.354,110.742L299.508,113.324L299.568,113.324C300.808,111.377 302.653,110.403 305.102,110.403C306.967,110.403 308.52,111.104 309.759,112.514C311,113.924 311.62,115.732 311.62,117.936C311.62,120.385 310.955,122.332 309.617,123.781C308.28,125.23 306.608,125.961 304.609,125.961C303.596,125.961 302.668,125.755 301.823,125.344C300.977,124.936 300.316,124.35 299.846,123.592L299.783,123.592L299.783,131.707L296.924,131.707ZM299.783,117.075L299.783,119.473C299.783,120.672 300.205,121.677 301.039,122.49C301.875,123.305 302.879,123.715 304.059,123.715C305.493,123.715 306.63,123.202 307.47,122.182C308.31,121.164 308.73,119.789 308.73,118.06C308.73,116.499 308.315,115.214 307.484,114.199C306.654,113.187 305.554,112.679 304.181,112.679C303.299,112.679 302.488,112.93 301.753,113.438C301.014,113.943 300.501,114.564 300.214,115.296C299.928,116.028 299.783,116.622 299.783,117.075ZM329.145,118.028C329.145,119.627 328.811,121.025 328.145,122.224C327.479,123.423 326.546,124.344 325.348,124.99C324.148,125.637 322.853,125.961 321.459,125.961C319.286,125.961 317.494,125.246 316.077,123.827C314.663,122.407 313.958,120.568 313.958,118.304C313.958,115.896 314.69,113.975 316.15,112.546C317.611,111.114 319.45,110.403 321.674,110.403C323.888,110.403 325.688,111.11 327.069,112.529C328.453,113.949 329.145,115.782 329.145,118.028ZM316.878,118.212C316.878,119.841 317.313,121.185 318.185,122.245C319.056,123.305 320.147,123.837 321.459,123.837C322.801,123.837 323.923,123.305 324.82,122.239C325.717,121.175 326.163,119.799 326.163,118.121C326.163,116.571 325.753,115.25 324.928,114.159C324.104,113.066 322.977,112.523 321.551,112.523C320.106,112.523 318.969,113.061 318.134,114.144C317.298,115.224 316.878,116.581 316.878,118.212ZM330.651,110.742L333.57,110.742C335.519,117.957 336.563,122.035 336.707,122.977L336.769,122.977C336.881,122.178 338.152,118.099 340.58,110.742L343.01,110.742C345.213,117.637 346.443,121.717 346.698,122.977L346.761,122.977C347.047,121.441 347.406,119.934 347.836,118.459L350.081,110.742L352.909,110.742L347.99,125.621L345.347,125.621C343.656,120.416 342.703,117.453 342.487,116.741C342.271,116.028 342.025,115.025 341.75,113.725L341.688,113.725C341.35,115.271 340.903,116.848 340.351,118.459L337.874,125.621L335.231,125.621L330.651,110.742ZM367.852,118.764L357.06,118.764C357.1,120.374 357.598,121.604 358.552,122.459C359.505,123.314 360.738,123.746 362.255,123.746C363.905,123.746 365.352,123.489 366.59,122.977L367.082,124.977C365.616,125.631 363.885,125.961 361.887,125.961C359.57,125.961 357.727,125.274 356.353,123.899C354.979,122.527 354.294,120.701 354.294,118.427C354.294,116.15 354.954,114.245 356.271,112.708C357.588,111.171 359.355,110.403 361.578,110.403C363.63,110.403 365.202,111.085 366.297,112.451C367.396,113.82 367.942,115.497 367.942,117.475C367.942,118.038 367.913,118.468 367.852,118.764ZM357.091,116.705L365.177,116.705C365.177,115.424 364.848,114.391 364.187,113.607C363.526,112.822 362.583,112.432 361.363,112.432C360.206,112.432 359.248,112.822 358.49,113.607C357.73,114.391 357.265,115.424 357.091,116.705ZM371.386,125.621L371.386,115.477C371.386,113.55 371.344,111.971 371.264,110.742L373.784,110.742L373.968,113.725C374.349,112.679 374.927,111.862 375.705,111.278C376.483,110.695 377.33,110.403 378.242,110.403C378.437,110.403 378.693,110.425 379.009,110.466L379.009,113.169C378.733,113.109 378.407,113.076 378.026,113.076C376.992,113.076 376.105,113.483 375.363,114.292C374.619,115.103 374.246,116.254 374.246,117.751L374.246,125.621L371.386,125.621ZM384.698,125.621L381.84,125.621L381.84,110.742L384.698,110.742L384.698,125.621ZM385.098,106.222C385.098,106.734 384.929,107.163 384.59,107.513C384.253,107.86 383.808,108.036 383.254,108.036C382.721,108.036 382.284,107.86 381.947,107.513C381.609,107.163 381.439,106.734 381.439,106.222C381.439,105.721 381.613,105.295 381.958,104.951C382.3,104.607 382.742,104.437 383.284,104.437C383.808,104.437 384.243,104.607 384.585,104.951C384.929,105.295 385.098,105.721 385.098,106.222ZM389.28,125.621L389.28,114.83C389.28,113.181 389.237,111.817 389.157,110.742L391.678,110.742L391.924,113.264C392.394,112.399 393.087,111.708 393.998,111.188C394.91,110.666 395.91,110.403 396.997,110.403C398.554,110.403 399.849,110.952 400.886,112.053C401.92,113.155 402.438,114.769 402.438,116.891L402.438,125.621L399.577,125.621L399.577,117.197C399.577,115.792 399.276,114.702 398.671,113.928C398.068,113.155 397.19,112.771 396.042,112.771C395.019,112.771 394.111,113.155 393.322,113.924C392.532,114.69 392.138,115.63 392.138,116.734L392.138,125.621L389.28,125.621ZM420.148,114.769L420.148,123.407C420.148,126.646 419.444,128.902 418.041,130.172C416.637,131.442 414.726,132.077 412.306,132.077C410.153,132.077 408.423,131.646 407.111,130.787L407.82,128.604C409.142,129.424 410.656,129.832 412.368,129.832C413.956,129.832 415.181,129.394 416.036,128.511C416.892,127.63 417.316,126.338 417.316,124.64L417.257,123.007C416.179,124.711 414.541,125.56 412.337,125.56C410.463,125.56 408.904,124.865 407.658,123.474C406.413,122.087 405.791,120.364 405.791,118.304C405.791,115.918 406.477,114 407.846,112.562C409.212,111.12 410.84,110.403 412.737,110.403C414.992,110.403 416.621,111.264 417.627,112.986L417.748,110.742L420.271,110.742C420.188,111.634 420.148,112.975 420.148,114.769ZM417.288,119.136L417.288,116.705C417.288,115.598 416.914,114.64 416.165,113.83C415.416,113.021 414.437,112.615 413.229,112.615C411.896,112.615 410.805,113.124 409.955,114.14C409.104,115.154 408.677,116.489 408.677,118.149C408.677,119.676 409.089,120.927 409.904,121.907C410.717,122.884 411.815,123.376 413.197,123.376C414.294,123.376 415.252,122.98 416.066,122.194C416.882,121.406 417.288,120.385 417.288,119.136ZM432.044,107.975L434.842,107.144L434.842,110.742L438.807,110.742L438.807,112.924L434.842,112.924L434.842,120.672C434.842,121.706 435.012,122.449 435.346,122.904C435.678,123.36 436.203,123.592 436.934,123.592C437.598,123.592 438.143,123.53 438.562,123.407L438.686,125.56C437.978,125.826 437.128,125.961 436.134,125.961C433.408,125.961 432.044,124.258 432.044,120.854L432.044,112.924L429.708,112.924L429.708,110.742L432.044,110.742L432.044,107.975ZM441.975,125.621L441.975,103.732L444.834,103.732L444.834,113.109L444.896,113.109C445.396,112.269 446.102,111.607 446.996,111.126C447.893,110.645 448.808,110.403 449.754,110.403C451.29,110.403 452.57,110.952 453.595,112.053C454.623,113.155 455.135,114.769 455.135,116.891L455.135,125.621L452.274,125.621L452.274,117.197C452.274,115.792 451.972,114.702 451.367,113.928C450.765,113.155 449.887,112.771 448.738,112.771C447.766,112.771 446.873,113.134 446.06,113.867C445.244,114.601 444.834,115.547 444.834,116.705L444.834,125.621L441.975,125.621ZM472.042,118.764L461.251,118.764C461.291,120.374 461.791,121.604 462.743,122.459C463.695,123.314 464.929,123.746 466.446,123.746C468.098,123.746 469.543,123.489 470.781,122.977L471.273,124.977C469.809,125.631 468.076,125.961 466.078,125.961C463.761,125.961 461.918,125.274 460.545,123.899C459.171,122.527 458.485,120.701 458.485,118.427C458.485,116.15 459.145,114.245 460.463,112.708C461.78,111.171 463.547,110.403 465.771,110.403C467.819,110.403 469.395,111.085 470.49,112.451C471.585,113.82 472.134,115.497 472.134,117.475C472.134,118.038 472.104,118.468 472.042,118.764ZM461.281,116.705L469.368,116.705C469.368,115.424 469.04,114.391 468.381,113.607C467.719,112.822 466.776,112.432 465.557,112.432C464.397,112.432 463.438,112.822 462.682,113.607C461.922,114.391 461.458,115.424 461.281,116.705ZM481.234,124.914L481.91,122.73C483.119,123.47 484.37,123.837 485.661,123.837C486.582,123.837 487.295,123.643 487.799,123.254C488.3,122.863 488.551,122.344 488.551,121.687C488.551,121.061 488.347,120.548 487.933,120.153C487.516,119.758 486.788,119.391 485.754,119.041C483.027,118.111 481.665,116.705 481.665,114.83C481.665,113.58 482.15,112.529 483.119,111.679C484.089,110.827 485.374,110.403 486.981,110.403C488.481,110.403 489.751,110.711 490.796,111.326L490.088,113.385C489.053,112.791 487.986,112.494 486.893,112.494C486.131,112.494 485.534,112.679 485.092,113.051C484.653,113.426 484.432,113.909 484.432,114.49C484.432,115.016 484.622,115.455 484.994,115.813C485.368,116.173 486.143,116.56 487.32,116.983C488.757,117.494 489.786,118.099 490.411,118.8C491.036,119.502 491.35,120.385 491.35,121.441C491.35,122.794 490.837,123.884 489.805,124.715C488.776,125.544 487.372,125.961 485.6,125.961C483.972,125.961 482.516,125.611 481.234,124.914ZM494.914,125.621L494.914,114.83C494.914,113.181 494.873,111.817 494.791,110.742L497.281,110.742L497.497,113.169C498.603,111.326 500.223,110.403 502.355,110.403C503.34,110.403 504.217,110.67 504.979,111.203C505.74,111.735 506.322,112.473 506.72,113.416C507.939,111.409 509.639,110.403 511.823,110.403C513.298,110.403 514.516,110.962 515.467,112.077C516.42,113.196 516.896,114.83 516.896,116.983L516.896,125.621L514.101,125.621L514.101,117.323C514.101,115.844 513.816,114.712 513.249,113.924C512.681,113.134 511.864,112.739 510.811,112.739C509.896,112.739 509.086,113.088 508.377,113.792C507.663,114.49 507.304,115.395 507.304,116.489L507.304,125.621L504.507,125.621L504.507,116.828C504.507,115.566 504.227,114.568 503.661,113.836C503.099,113.102 502.323,112.739 501.34,112.739C500.386,112.739 499.547,113.14 498.814,113.939C498.08,114.737 497.713,115.671 497.713,116.734L497.713,125.621L494.914,125.621ZM532.267,116.612L532.267,122.055C532.267,123.53 532.352,124.721 532.516,125.621L529.9,125.621L529.563,123.715C528.445,125.211 526.877,125.961 524.859,125.961C523.445,125.961 522.312,125.541 521.463,124.705C520.61,123.868 520.187,122.863 520.187,121.687C520.187,119.882 520.97,118.503 522.538,117.552C524.107,116.597 526.397,116.121 529.409,116.121L529.409,115.844C529.409,114.79 529.122,113.963 528.544,113.376C527.963,112.787 527.104,112.494 525.966,112.494C524.449,112.494 523.098,112.872 521.91,113.633L521.262,111.756C522.697,110.854 524.408,110.403 526.397,110.403C528.332,110.403 529.798,110.936 530.787,112.002C531.775,113.066 532.267,114.604 532.267,116.612ZM529.471,120.548L529.471,118.089C527.073,118.089 525.409,118.377 524.473,118.95C523.542,119.522 523.076,120.313 523.076,121.317C523.076,122.107 523.312,122.721 523.777,123.165C524.243,123.613 524.859,123.837 525.626,123.837C526.714,123.837 527.625,123.499 528.364,122.829C529.103,122.156 529.471,121.4 529.471,120.548ZM536.726,125.621L536.726,115.477C536.726,113.55 536.685,111.971 536.604,110.742L539.125,110.742L539.308,113.725C539.688,112.679 540.267,111.862 541.045,111.278C541.825,110.695 542.669,110.403 543.582,110.403C543.775,110.403 544.033,110.425 544.351,110.466L544.351,113.169C544.072,113.109 543.746,113.076 543.366,113.076C542.331,113.076 541.445,113.483 540.702,114.292C539.959,115.103 539.585,116.254 539.585,117.751L539.585,125.621L536.726,125.621ZM548.501,107.975L551.299,107.144L551.299,110.742L555.266,110.742L555.266,112.924L551.299,112.924L551.299,120.672C551.299,121.706 551.468,122.449 551.801,122.904C552.135,123.36 552.662,123.592 553.389,123.592C554.055,123.592 554.599,123.53 555.018,123.407L555.142,125.56C554.434,125.826 553.585,125.961 552.59,125.961C549.863,125.961 548.501,124.258 548.501,120.854L548.501,112.924L546.164,112.924L546.164,110.742L548.501,110.742L548.501,107.975ZM565.133,125.621L565.133,103.732L567.995,103.732L567.995,113.109L568.054,113.109C568.557,112.269 569.258,111.607 570.155,111.126C571.053,110.645 571.969,110.403 572.911,110.403C574.448,110.403 575.73,110.952 576.755,112.053C577.783,113.155 578.293,114.769 578.293,116.891L578.293,125.621L575.436,125.621L575.436,117.197C575.436,115.792 575.131,114.702 574.527,113.928C573.923,113.155 573.045,112.771 571.897,112.771C570.924,112.771 570.033,113.134 569.216,113.867C568.403,114.601 567.995,115.547 567.995,116.705L567.995,125.621L565.133,125.621ZM596.831,118.028C596.831,119.627 596.498,121.025 595.829,122.224C595.165,123.423 594.232,124.344 593.034,124.99C591.832,125.637 590.539,125.961 589.146,125.961C586.97,125.961 585.18,125.246 583.763,123.827C582.35,122.407 581.645,120.568 581.645,118.304C581.645,115.896 582.375,113.975 583.836,112.546C585.297,111.114 587.135,110.403 589.36,110.403C591.574,110.403 593.373,111.11 594.754,112.529C596.139,113.949 596.831,115.782 596.831,118.028ZM584.563,118.212C584.563,119.841 584.998,121.185 585.871,122.245C586.742,123.305 587.833,123.837 589.146,123.837C590.489,123.837 591.608,123.305 592.506,122.239C593.402,121.175 593.849,119.799 593.849,118.121C593.849,116.571 593.437,115.25 592.612,114.159C591.788,113.066 590.661,112.523 589.237,112.523C587.792,112.523 586.656,113.061 585.817,114.144C584.984,115.224 584.563,116.581 584.563,118.212ZM600.306,125.621L600.306,114.83C600.306,113.181 600.263,111.817 600.183,110.742L602.672,110.742L602.888,113.169C603.993,111.326 605.612,110.403 607.743,110.403C608.729,110.403 609.604,110.67 610.366,111.203C611.133,111.735 611.712,112.473 612.11,113.416C613.329,111.409 615.029,110.403 617.214,110.403C618.688,110.403 619.903,110.962 620.856,112.077C621.809,113.196 622.285,114.83 622.285,116.983L622.285,125.621L619.489,125.621L619.489,117.323C619.489,115.844 619.206,114.712 618.637,113.924C618.067,113.134 617.255,112.739 616.197,112.739C615.287,112.739 614.479,113.088 613.765,113.792C613.053,114.49 612.695,115.395 612.695,116.489L612.695,125.621L609.896,125.621L609.896,116.828C609.896,115.566 609.614,114.568 609.052,113.836C608.488,113.102 607.714,112.739 606.728,112.739C605.777,112.739 604.937,113.14 604.204,113.939C603.471,114.737 603.102,115.671 603.102,116.734L603.102,125.621L600.306,125.621ZM639.193,118.764L628.404,118.764C628.446,120.374 628.94,121.604 629.895,122.459C630.849,123.314 632.083,123.746 633.6,123.746C635.247,123.746 636.694,123.489 637.935,122.977L638.428,124.977C636.961,125.631 635.229,125.961 633.23,125.961C630.913,125.961 629.072,125.274 627.697,123.899C626.325,122.527 625.637,120.701 625.637,118.427C625.637,116.15 626.3,114.245 627.616,112.708C628.933,111.171 630.701,110.403 632.922,110.403C634.973,110.403 636.545,111.085 637.642,112.451C638.739,113.82 639.288,115.497 639.288,117.475C639.288,118.038 639.257,118.468 639.193,118.764ZM628.434,116.705L636.52,116.705C636.52,115.424 636.192,114.391 635.53,113.607C634.869,112.822 633.926,112.432 632.706,112.432C631.55,112.432 630.592,112.822 629.832,113.607C629.076,114.391 628.608,115.424 628.434,116.705Z" style="fill:rgb(152,152,152);"/>
        <g id="logo_horizontal_1_">
            <path id="logo_orange" d="M7.253,100.081L62.107,45.187L70.095,37.199L78.083,45.187L118.576,85.678L118.516,85.883L117.718,88.233L116.812,90.531L115.792,92.773L114.67,94.96L113.65,96.729L70.095,53.175C51.09,72.194 32.086,91.214 13.082,110.232C10.887,107 8.849,103.672 7.253,100.081Z" style="fill:rgb(230,74,25);"/>
            <path id="logo_grey" d="M70.096,0C108.706,0 140.191,31.487 140.191,70.099C140.191,108.705 108.706,140.193 70.096,140.193C49.007,140.193 30.046,130.79 17.18,115.972L19.656,113.483L21.455,111.686L23.256,109.882L25.058,108.077L25.131,108.008C35.942,120.807 52.093,128.963 70.096,128.963C102.52,128.963 128.962,102.521 128.962,70.099C128.962,37.672 102.52,11.229 70.096,11.229C37.671,11.229 11.229,37.672 11.229,70.099C11.229,74.464 11.714,78.719 12.624,82.818L8.718,86.733L3.504,91.95C1.235,85.066 0,77.724 0,70.099C0,31.487 31.486,0 70.096,0Z" style="fill:rgb(71,71,71);"/>
        </g>
        <g id="lettering">
            <path id="hab_1_" d="M592.216,60.806L592.216,86.464L609.011,86.464L610.009,86.456L610.97,86.438L611.892,86.406L612.779,86.36L613.628,86.305L614.441,86.235L615.22,86.156L615.957,86.064L616.658,85.96L617.32,85.847L617.947,85.72L618.532,85.585L619.08,85.439L619.586,85.287L620.057,85.124L620.473,84.96L621.314,84.568L622.11,84.13L622.855,83.648L623.559,83.12L624.213,82.545L624.83,81.918L625.405,81.241L625.941,80.51L626.43,79.741L626.848,78.964L627.201,78.172L627.488,77.366L627.711,76.545L627.872,75.704L627.965,74.841L627.999,73.962L627.953,72.873L627.818,71.831L627.594,70.827L627.282,69.863L626.882,68.927L626.39,68.023L625.803,67.143L625.124,66.294L624.364,65.494L623.532,64.76L622.628,64.085L621.651,63.477L620.594,62.929L619.461,62.442L618.241,62.021L616.934,61.665L616.491,61.567L615.987,61.473L615.436,61.383L614.83,61.3L614.174,61.22L613.474,61.148L612.726,61.083L611.93,61.025L611.082,60.975L610.193,60.929L609.259,60.891L608.277,60.861L607.249,60.837L606.178,60.819L605.063,60.808L603.898,60.806L592.216,60.806ZM592.216,28.868L592.216,49.725L603.945,49.725L604.896,49.719L605.809,49.703L606.688,49.673L607.531,49.635L608.339,49.584L609.116,49.522L609.858,49.451L610.561,49.369L611.231,49.276L611.866,49.173L612.463,49.06L613.021,48.937L613.545,48.804L614.031,48.667L614.478,48.519L614.882,48.367L615.689,48.015L616.436,47.623L617.134,47.19L617.789,46.715L618.399,46.192L618.971,45.63L619.501,45.017L619.993,44.357L620.436,43.665L620.816,42.961L621.136,42.236L621.399,41.496L621.604,40.736L621.751,39.951L621.84,39.14L621.87,38.311L621.818,37.195L621.674,36.169L621.434,35.225L621.106,34.354L620.688,33.544L620.178,32.797L619.57,32.096L618.856,31.436L618.491,31.159L618.076,30.884L617.624,30.622L617.138,30.376L616.612,30.146L616.051,29.932L615.457,29.735L614.82,29.559L614.144,29.399L613.434,29.261L612.688,29.144L611.898,29.045L611.076,28.967L610.22,28.914L609.32,28.88L608.378,28.868L592.216,28.868ZM612.541,18.514L613.525,18.611L614.479,18.725L615.404,18.855L616.295,19.006L617.16,19.173L617.993,19.359L618.801,19.567L619.574,19.794L620.322,20.04L621.041,20.308L621.739,20.6L623.021,21.219L624.251,21.927L625.413,22.719L626.505,23.587L627.524,24.54L628.473,25.571L629.344,26.677L630.132,27.843L630.509,28.464L630.854,29.083L631.177,29.71L631.477,30.349L631.751,30.994L632.003,31.646L632.229,32.308L632.436,32.978L632.611,33.654L632.769,34.339L632.899,35.029L633.007,35.728L633.088,36.433L633.149,37.143L633.183,37.862L633.199,38.599L633.153,39.95L633.028,41.285L632.813,42.593L632.515,43.876L632.13,45.124L631.659,46.343L631.109,47.529L630.473,48.691L629.742,49.811L628.939,50.868L628.055,51.872L627.092,52.82L626.053,53.708L625.511,54.112L626.515,54.553L627.772,55.17L628.941,55.811L630.034,56.479L631.04,57.176L631.969,57.904L632.816,58.664L633.607,59.457L634.354,60.289L635.054,61.16L635.705,62.068L636.31,63.015L636.867,63.999L637.386,65.026L637.842,66.082L638.236,67.163L638.567,68.265L638.844,69.388L639.052,70.532L639.205,71.697L639.296,72.882L639.326,74.084L639.296,75.3L639.215,76.494L639.072,77.667L638.873,78.824L638.617,79.957L638.306,81.065L637.937,82.153L637.511,83.221L637.026,84.26L636.486,85.276L635.892,86.264L635.24,87.23L634.536,88.167L633.778,89.079L632.965,89.965L632.096,90.829L631.171,91.655L630.209,92.425L629.207,93.143L628.169,93.81L627.094,94.421L625.982,94.977L624.836,95.48L623.653,95.931L622.434,96.325L621.186,96.667L619.901,96.952L618.586,97.188L617.237,97.369L615.856,97.498L614.443,97.575L613.013,97.604L581.346,97.604L581.346,18.3L607.172,18.3L608.299,18.308L609.406,18.334L610.481,18.375L611.527,18.437L612.541,18.514ZM433.672,18.311L444.733,18.311L444.733,50.144L479.91,50.144L479.91,18.311L490.938,18.311L490.938,97.63L479.91,97.63L479.91,61.05L444.733,61.05L444.733,97.63L433.672,97.63L433.672,18.311ZM522.895,68.339L549.82,68.339L536.4,39.846L522.895,68.339ZM554.774,79.144L517.91,79.144L509.159,97.604L496.915,97.604L534.395,18.3L538.438,18.3L575.387,97.604L563.507,97.604L560.346,90.969L554.774,79.144Z" style="fill:rgb(71,71,71);"/>
            <g id="open_1_">
                <path d="M191.027,36.277L192.681,36.316L194.303,36.429L195.894,36.619L197.453,36.886L198.979,37.229L200.475,37.65L201.935,38.148L203.36,38.725L204.748,39.375L206.102,40.104L207.417,40.907L208.695,41.787L209.935,42.74L211.136,43.769L212.299,44.869L213.428,46.048L214.401,47.178L215.309,48.329L216.155,49.509L216.94,50.718L217.663,51.951L218.324,53.213L218.922,54.5L219.457,55.814L219.929,57.152L220.337,58.515L220.683,59.9L220.966,61.312L221.185,62.744L221.341,64.201L221.434,65.678L221.466,67.182L221.432,68.684L221.332,70.17L221.166,71.632L220.934,73.076L220.633,74.495L220.267,75.894L219.833,77.268L219.333,78.619L218.765,79.945L218.132,81.246L217.434,82.52L216.669,83.77L215.838,84.992L214.944,86.189L213.986,87.357L212.962,88.504L211.878,89.607L210.752,90.645L209.586,91.611L208.381,92.512L207.135,93.338L205.852,94.094L204.53,94.777L203.171,95.393L201.772,95.93L200.34,96.398L198.873,96.793L197.372,97.117L195.834,97.365L194.266,97.543L192.662,97.652L191.027,97.688L189.381,97.652L187.77,97.545L186.194,97.365L184.652,97.117L183.144,96.793L181.672,96.398L180.238,95.93L178.841,95.393L177.479,94.777L176.155,94.094L174.872,93.338L173.629,92.51L172.424,91.611L171.26,90.645L170.136,89.605L169.057,88.504L168.033,87.357L167.074,86.189L166.18,84.992L165.352,83.77L164.587,82.52L163.89,81.244L163.258,79.941L162.693,78.617L162.194,77.267L161.763,75.892L161.397,74.493L161.099,73.073L160.867,71.63L160.702,70.168L160.604,68.684L160.572,67.182L160.602,65.686L160.695,64.214L160.852,62.762L161.071,61.334L161.353,59.928L161.697,58.544L162.107,57.184L162.579,55.852L163.112,54.541L163.712,53.257L164.372,51.996L165.097,50.766L165.881,49.56L166.728,48.381L167.636,47.229L168.608,46.102L169.732,44.919L170.896,43.811L172.096,42.777L173.337,41.819L174.614,40.934L175.932,40.125L177.286,39.393L178.676,38.738L180.1,38.159L181.562,37.658L183.058,37.234L184.588,36.891L186.148,36.62L187.743,36.429L189.369,36.316L191.027,36.277ZM191.027,46.62L190.013,46.643L189.022,46.713L188.053,46.83L187.104,46.995L186.174,47.205L185.266,47.463L184.373,47.766L183.501,48.117L182.643,48.514L181.804,48.957L180.979,49.45L180.171,49.992L179.377,50.581L178.599,51.222L177.835,51.91L177.088,52.651L176.369,53.425L175.702,54.215L175.082,55.021L174.511,55.848L173.984,56.691L173.506,57.553L173.072,58.432L172.686,59.333L172.343,60.252L172.046,61.188L171.796,62.148L171.59,63.132L171.428,64.135L171.314,65.16L171.245,66.21L171.223,67.29L171.231,67.977L171.264,68.665L171.314,69.344L171.389,70.018L171.482,70.687L171.597,71.349L171.732,72.003L171.891,72.656L172.066,73.301L172.265,73.941L172.483,74.574L172.724,75.202L172.985,75.826L173.268,76.444L173.571,77.058L173.891,77.656L174.595,78.836L175.35,79.932L176.16,80.955L177.028,81.906L177.953,82.785L178.938,83.598L179.981,84.344L181.101,85.029L181.656,85.332L182.232,85.623L182.816,85.893L183.407,86.143L184.002,86.373L184.604,86.582L185.214,86.773L185.83,86.943L186.451,87.092L187.084,87.223L187.722,87.334L188.366,87.424L189.018,87.494L189.682,87.545L190.351,87.576L191.027,87.586L191.711,87.576L192.389,87.545L193.06,87.494L193.72,87.424L194.369,87.334L195.014,87.221L195.651,87.092L196.279,86.943L196.896,86.773L197.509,86.582L198.114,86.371L198.713,86.143L199.303,85.893L199.889,85.623L200.468,85.332L201.021,85.031L202.121,84.348L203.155,83.604L204.132,82.791L205.05,81.91L205.913,80.957L206.722,79.936L207.475,78.836L208.179,77.658L208.491,77.064L208.794,76.449L209.074,75.831L209.334,75.207L209.571,74.578L209.79,73.943L209.988,73.301L210.164,72.658L210.319,72.006L210.456,71.35L210.569,70.686L210.665,70.018L210.737,69.344L210.79,68.663L210.822,67.975L210.833,67.289L210.809,66.213L210.738,65.163L210.622,64.136L210.461,63.134L210.253,62.152L210.001,61.191L209.703,60.252L209.36,59.334L208.971,58.435L208.537,57.554L208.056,56.692L207.529,55.849L206.956,55.021L206.335,54.215L205.667,53.424L204.951,52.651L204.201,51.91L203.438,51.222L202.658,50.581L201.865,49.992L201.056,49.451L200.231,48.957L199.393,48.513L198.537,48.117L197.663,47.766L196.772,47.463L195.863,47.205L194.938,46.995L193.99,46.83L193.023,46.713L192.035,46.643L191.027,46.62ZM356.796,81.697L355.995,83.098L355.16,84.43L354.29,85.691L353.381,86.885L352.436,88.008L351.451,89.061L350.433,90.039L349.39,90.949L348.314,91.803L347.205,92.598L346.063,93.34L344.888,94.023L343.682,94.652L342.441,95.223L341.182,95.734L340.522,95.975L339.865,96.195L339.196,96.4L338.519,96.59L337.832,96.766L337.136,96.926L336.43,97.07L335.713,97.201L334.986,97.314L334.252,97.412L333.509,97.496L332.758,97.566L331.994,97.619L331.225,97.656L330.445,97.68L329.648,97.688L327.919,97.65L326.225,97.541L324.572,97.361L322.964,97.107L321.398,96.779L319.877,96.377L318.401,95.898L316.97,95.348L315.584,94.721L314.248,94.02L312.957,93.242L311.718,92.393L310.526,91.467L309.386,90.471L308.298,89.4L307.267,88.268L306.297,87.094L305.393,85.908L304.55,84.699L303.77,83.469L303.048,82.219L302.39,80.945L301.793,79.654L301.261,78.344L300.788,77.013L300.38,75.66L300.034,74.291L299.753,72.904L299.533,71.498L299.377,70.075L299.283,68.636L299.253,67.184L299.278,65.809L299.358,64.453L299.49,63.114L299.677,61.793L299.914,60.488L300.208,59.202L300.554,57.934L300.956,56.685L301.408,55.454L301.915,54.244L302.475,53.051L303.089,51.881L303.752,50.729L304.469,49.598L305.238,48.486L306.062,47.395L307.151,46.063L308.299,44.811L309.495,43.638L310.742,42.551L312.037,41.548L313.383,40.632L314.774,39.802L316.214,39.061L317.698,38.404L319.229,37.838L320.802,37.357L322.421,36.969L324.077,36.665L325.776,36.449L327.516,36.321L329.295,36.277L331.113,36.321L332.891,36.453L334.628,36.674L336.324,36.985L337.979,37.383L339.591,37.873L341.16,38.452L342.684,39.124L344.159,39.883L345.59,40.731L346.972,41.668L348.307,42.693L349.591,43.803L350.827,45.001L352.012,46.283L353.145,47.648L353.915,48.668L354.637,49.719L355.311,50.801L355.935,51.916L356.506,53.057L357.03,54.231L357.504,55.436L357.93,56.67L358.303,57.929L358.628,59.219L358.903,60.533L359.13,61.88L359.306,63.251L359.435,64.651L359.514,66.076L359.583,69.24L310.043,69.24L310.082,69.738L310.208,70.807L310.377,71.848L310.586,72.857L310.838,73.838L311.13,74.792L311.464,75.719L311.836,76.617L312.251,77.488L312.706,78.332L313.205,79.154L313.743,79.949L314.324,80.721L314.947,81.467L315.617,82.193L316.312,82.883L317.025,83.527L317.756,84.123L318.505,84.676L319.272,85.18L320.058,85.643L320.86,86.059L321.685,86.432L322.527,86.762L323.391,87.047L324.276,87.287L325.185,87.488L326.112,87.643L327.064,87.754L328.039,87.822L329.038,87.844L330.021,87.822L330.995,87.756L331.959,87.648L332.916,87.5L333.862,87.307L334.803,87.07L335.737,86.791L336.662,86.473L337.567,86.109L338.446,85.721L339.284,85.305L340.086,84.865L340.849,84.4L341.575,83.912L342.262,83.398L342.91,82.865L343.543,82.281L344.201,81.602L344.886,80.82L345.594,79.939L346.325,78.957L347.077,77.873L347.849,76.692L349.49,74.041L358.325,78.766L356.796,81.697ZM345.785,55.063L345.228,54.197L344.642,53.407L344.005,52.666L343.313,51.954L342.57,51.275L341.775,50.632L340.927,50.021L340.025,49.447L339.066,48.907L338.042,48.398L337.527,48.168L337.003,47.947L336.474,47.743L335.946,47.555L335.412,47.381L334.877,47.221L334.339,47.078L333.796,46.949L333.25,46.835L332.704,46.736L332.153,46.654L331.597,46.586L331.04,46.531L330.481,46.493L329.917,46.473L329.354,46.465L328.413,46.484L327.499,46.541L326.604,46.635L325.729,46.768L324.872,46.936L324.033,47.145L323.212,47.387L322.407,47.669L321.617,47.984L320.849,48.34L320.093,48.732L319.354,49.164L318.627,49.633L317.919,50.141L317.223,50.687L316.544,51.271L316.075,51.712L315.621,52.181L315.179,52.68L314.75,53.208L314.332,53.763L313.93,54.349L313.538,54.965L313.16,55.613L312.794,56.291L312.443,56.999L312.105,57.737L311.782,58.508L311.472,59.309L311.318,59.741L347.841,59.741L347.696,59.282L347.269,58.113L346.808,57.021L346.312,56.006L345.785,55.063ZM260.537,36.277L262.19,36.316L263.813,36.429L265.403,36.619L266.963,36.886L268.489,37.229L269.984,37.65L271.444,38.148L272.87,38.725L274.258,39.375L275.611,40.104L276.927,40.907L278.205,41.787L279.444,42.74L280.646,43.769L281.809,44.869L282.938,46.048L283.911,47.178L284.818,48.329L285.665,49.509L286.45,50.718L287.173,51.951L287.834,53.213L288.432,54.5L288.967,55.814L289.438,57.152L289.847,58.515L290.192,59.9L290.476,61.312L290.694,62.744L290.851,64.201L290.943,65.678L290.976,67.182L290.941,68.684L290.842,70.17L290.676,71.632L290.443,73.076L290.143,74.495L289.776,75.894L289.343,77.268L288.843,78.619L288.274,79.945L287.642,81.246L286.943,82.52L286.179,83.77L285.348,84.992L284.454,86.189L283.496,87.357L282.472,88.504L281.388,89.607L280.262,90.645L279.096,91.611L277.891,92.512L276.645,93.338L275.361,94.094L274.04,94.777L272.681,95.393L271.282,95.93L269.85,96.398L268.383,96.793L266.882,97.117L265.344,97.365L263.775,97.543L262.172,97.652L260.537,97.688L258.891,97.652L257.279,97.545L255.704,97.365L254.162,97.117L252.653,96.793L251.182,96.398L249.748,95.93L248.351,95.393L246.988,94.777L245.665,94.094L244.382,93.338L243.139,92.51L241.934,91.611L240.77,90.645L240.742,90.619L240.742,118.788L230.088,118.788L230.088,67.479L230.082,67.182L230.088,66.868L230.088,66.709L230.091,66.709L230.111,65.686L230.205,64.214L230.361,62.762L230.581,61.334L230.862,59.928L231.207,58.544L231.617,57.184L232.089,55.852L232.622,54.541L233.222,53.257L233.882,51.996L234.606,50.766L235.391,49.56L236.237,48.381L237.146,47.229L238.118,46.102L239.242,44.919L240.405,43.811L241.605,42.777L242.847,41.819L244.124,40.934L245.441,40.125L246.796,39.393L248.186,38.738L249.609,38.159L251.072,37.658L252.567,37.234L254.098,36.891L255.658,36.62L257.253,36.429L258.879,36.316L260.537,36.277ZM240.742,67.982L240.742,66.831L240.755,66.21L240.824,65.16L240.938,64.135L241.1,63.132L241.306,62.148L241.556,61.188L241.853,60.252L242.195,59.333L242.582,58.432L243.016,57.553L243.494,56.691L244.021,55.848L244.592,55.021L245.212,54.215L245.879,53.425L246.598,52.651L247.345,51.91L248.108,51.222L248.887,50.581L249.681,49.992L250.489,49.45L251.313,48.957L252.151,48.514L253.011,48.117L253.883,47.766L254.775,47.463L255.684,47.205L256.613,46.995L257.563,46.83L258.532,46.713L259.522,46.643L260.537,46.62L261.545,46.643L262.533,46.713L263.5,46.83L264.447,46.995L265.373,47.205L266.282,47.463L267.173,47.766L268.047,48.117L268.902,48.513L269.741,48.957L270.565,49.451L271.375,49.992L272.168,50.581L272.947,51.222L273.711,51.91L274.461,52.651L275.177,53.424L275.845,54.215L276.466,55.021L277.039,55.849L277.565,56.692L278.047,57.554L278.48,58.435L278.87,59.334L279.213,60.252L279.511,61.191L279.763,62.152L279.971,63.134L280.132,64.136L280.248,65.163L280.318,66.213L280.343,67.289L280.332,67.975L280.3,68.663L280.247,69.344L280.174,70.018L280.079,70.686L279.966,71.35L279.829,72.006L279.674,72.658L279.498,73.301L279.3,73.943L279.081,74.578L278.844,75.207L278.584,75.831L278.304,76.449L278.001,77.064L277.688,77.658L276.984,78.836L276.231,79.936L275.423,80.957L274.56,81.91L273.642,82.791L272.665,83.604L271.631,84.348L270.53,85.031L269.978,85.332L269.398,85.623L268.813,85.893L268.223,86.143L267.624,86.371L267.019,86.582L266.405,86.773L265.789,86.943L265.161,87.092L264.523,87.221L263.879,87.334L263.229,87.424L262.569,87.494L261.898,87.545L261.221,87.576L260.537,87.586L259.86,87.576L259.191,87.545L258.527,87.494L257.876,87.424L257.231,87.334L256.594,87.223L255.961,87.092L255.34,86.943L254.724,86.773L254.113,86.582L253.512,86.373L252.917,86.143L252.326,85.893L251.742,85.623L251.166,85.332L250.61,85.029L249.491,84.344L248.447,83.598L247.463,82.785L246.538,81.906L245.67,80.955L244.859,79.932L244.104,78.836L243.4,77.656L243.081,77.058L242.777,76.444L242.495,75.826L242.233,75.202L241.993,74.574L241.774,73.941L241.576,73.301L241.4,72.656L241.242,72.003L241.106,71.349L240.992,70.687L240.898,70.018L240.824,69.344L240.773,68.665L240.742,67.982ZM395.023,36.364C390.402,36.364 384.243,37.478 380.282,39.764C376.276,42.078 373.375,45.241 371.656,49.165C369.964,53.036 369.142,58.833 369.142,66.889L369.142,97.614L379.593,97.614L379.593,69.016C379.593,62.595 379.864,58.28 380.399,56.19C381.208,52.759 382.71,50.438 384.999,49.066C387.374,47.643 390.183,46.465 395.021,46.465C399.857,46.465 402.611,47.651 404.986,49.075C407.275,50.446 408.777,52.768 409.586,56.199C410.121,58.289 410.393,62.604 410.393,69.023L410.393,97.623L420.844,97.623L420.844,66.897C420.844,58.842 420.021,53.045 418.329,49.174C416.61,45.25 413.709,42.087 409.703,39.772C405.742,37.485 399.645,36.364 395.023,36.364Z" style="fill:rgb(230,74,25);"/>
            </g>
        </g>
    </g>
</svg>
